<svg width="66" height="65" viewBox="0 0 66 65" fill="none" xmlns="http://www.w3.org/2000/svg">
<path d="M54.9653 20.1343L54.948 20.1495C54.6143 19.755 54.1376 19.4961 53.5916 19.4961H49.7877C53.2438 13.9858 54.0596 6.96093 51.7985 1.04219C51.6652 0.69549 51.3651 0.440885 51 0.367213C43.9036 -1.05966 36.2134 1.74425 31.4063 7.51673C30.8711 8.15811 30.402 8.80167 29.9848 9.44522C25.9946 5.42897 20.2189 3.55356 14.87 4.64782C14.5049 4.72149 14.2037 4.97935 14.0726 5.32821C12.364 9.87642 12.727 15.0443 14.9848 19.4972H11.4247C10.8819 19.4972 10.4063 19.7539 10.0715 20.1537L10.0509 20.1353L0.533021 30.6694C-0.230792 31.545 -0.165787 32.8407 0.677112 33.6165L2.34775 35.169C2.74212 35.545 3.25241 35.7476 3.79304 35.7476C3.82554 35.7476 3.85913 35.7476 3.89163 35.7454C4.46368 35.7194 5.01081 35.455 5.39759 35.0173L7.286 32.8374L6.90571 34.7421C6.74753 35.5244 6.94797 36.3261 7.45284 36.9437C7.9588 37.5601 8.70637 37.9144 9.50702 37.9144H9.7562V61.7497C9.7562 63.5417 11.2145 65 13.0065 65H52.0098C53.8017 65 55.26 63.5417 55.26 61.7497V37.9144H55.5092C56.3088 37.9144 57.0574 37.5601 57.5634 36.9437C58.0683 36.3261 58.2676 35.5233 58.1105 34.7454L57.7302 32.8363L59.6251 35.0227C60.0065 35.455 60.5526 35.7194 61.1257 35.7454C61.1582 35.7454 61.1918 35.7476 61.2243 35.7476C61.7649 35.7476 62.2752 35.5439 62.6609 35.1777L64.3359 33.6196C65.182 32.8406 65.2481 31.5448 64.4713 30.6553L54.9664 20.1353L54.9653 20.1343ZM33.0704 8.90351C37.2427 3.89484 43.8212 1.37696 49.9783 2.38346C51.8873 7.98043 50.8028 14.5752 47.1712 19.4961H36.8407C37.6967 18.2371 38.792 16.753 40.1506 15.1636H43.3424C43.9415 15.1636 44.4258 14.6793 44.4258 14.0802C44.4258 13.4809 43.9415 12.9967 43.3424 12.9967H42.1322C43.6208 11.4561 45.3088 9.89809 47.2416 8.44847C47.7205 8.08986 47.818 7.41055 47.4583 6.93276C47.0997 6.4528 46.4204 6.35638 45.9426 6.71608C45.026 7.40405 44.1625 8.11586 43.3424 8.83742V7.58281C43.3424 6.98368 42.8581 6.49939 42.259 6.49939C41.6598 6.49939 41.1755 6.98368 41.1755 7.58281V10.8667C40.3521 11.689 39.5872 12.5092 38.8841 13.3131C38.8819 13.3151 38.8797 13.3184 38.8776 13.3207C37.8147 14.5363 36.8906 15.7073 36.104 16.779L35.7367 14.9512C35.6186 14.3651 35.0466 13.9816 34.4605 14.1029C33.8743 14.2198 33.4941 14.7919 33.6121 15.3792L34.3911 19.2621C34.3402 19.3413 34.2882 19.4214 34.2384 19.4984H29.2795C29.1799 15.6153 30.441 12.0542 33.0683 8.90568L33.0704 8.90351ZM15.9003 6.66299C20.5536 5.92843 25.5233 7.75833 28.8722 11.4171C27.9621 13.2881 27.4767 15.1094 27.2546 16.7736C26.5721 15.9664 25.8017 15.1138 24.9253 14.2438V11.9154C24.9253 11.3163 24.441 10.832 23.8418 10.832C23.2427 10.832 22.7584 11.3163 22.7584 11.9154V12.2642C22.2719 11.8537 21.7714 11.4463 21.2427 11.0487C20.766 10.6901 20.0867 10.7854 19.7259 11.2643C19.3673 11.7421 19.4637 12.4213 19.9415 12.7811C21.428 13.8982 22.727 15.0888 23.8537 16.247H22.7595C22.1604 16.247 21.6761 16.7312 21.6761 17.3303C21.6761 17.9295 22.1604 18.4137 22.7595 18.4137H25.8072C26.1181 18.7875 26.4139 19.1526 26.6782 19.4961H17.4713C15.1549 15.6012 14.5558 10.7919 15.9014 6.6619L15.9003 6.66299ZM3.83096 33.5893L2.15382 32.1083L8.92522 24.6143L8.1419 28.5416L3.83096 33.5893ZM53.0932 61.7497C53.0932 62.3478 52.6078 62.8332 52.0098 62.8332H13.0065C12.4085 62.8332 11.9231 62.3478 11.9231 61.7497V37.9144H53.0932V61.7497ZM55.8863 35.571C55.8321 35.6371 55.7107 35.7476 55.5092 35.7476H9.50702C9.3055 35.7476 9.18416 35.636 9.12998 35.571C9.07581 35.5038 8.99131 35.3651 9.03031 35.1679L11.7227 21.6629H53.2925L55.9848 35.1712C56.0238 35.3651 55.9404 35.5049 55.8863 35.571ZM61.2568 33.5968L56.8722 28.5373L56.0845 24.5838L62.8646 32.0291L61.2568 33.5968Z" fill="#565656"/>
<path d="M16.2562 59.5826H24.9236C25.5227 59.5826 26.007 59.0984 26.007 58.4992C26.007 57.9001 25.5227 57.4158 24.9236 57.4158H16.2562C15.657 57.4158 15.1728 57.9001 15.1728 58.4992C15.1728 59.0984 15.657 59.5826 16.2562 59.5826Z" fill="#565656"/>
<path d="M22.7562 50.9207V54.1709C22.7562 54.7701 23.2405 55.2544 23.8397 55.2544C24.4388 55.2544 24.9231 54.7701 24.9231 54.1709V50.9207C25.2004 50.9207 25.4778 50.8145 25.6891 50.6032C26.1127 50.1796 26.1127 49.4949 25.6891 49.0713L24.6056 47.9878C24.182 47.5642 23.4973 47.5642 23.0737 47.9878L21.9903 49.0713C21.5666 49.4949 21.5666 50.1796 21.9903 50.6032C22.2015 50.8145 22.4789 50.9207 22.7562 50.9207Z" fill="#565656"/>
<path d="M16.2558 50.9207V54.1709C16.2558 54.7701 16.7401 55.2544 17.3392 55.2544C17.9384 55.2544 18.4227 54.7701 18.4227 54.1709V50.9207C18.7 50.9207 18.9774 50.8145 19.1886 50.6032C19.6123 50.1796 19.6123 49.4949 19.1886 49.0713L18.1052 47.9878C17.6816 47.5642 16.9969 47.5642 16.5733 47.9878L15.4898 49.0713C15.0662 49.4949 15.0662 50.1796 15.4898 50.6032C15.7011 50.8145 15.9785 50.9207 16.2558 50.9207Z" fill="#565656"/>
</svg>
