<svg width="160" height="42" viewBox="0 0 160 42" fill="none" xmlns="http://www.w3.org/2000/svg">
<path d="M0.5 31.0868L0.500003 10.8157L10.3851 16.4466V25.5122L18.2933 30.0732L26.2013 25.5122V16.4466L36.0865 10.8157V31.0868L18.2933 41.2223L0.5 31.0868Z" fill="#565656"/>
<path fill-rule="evenodd" clip-rule="evenodd" d="M5.44257 13.6312L0.500003 10.8157L18.2932 0.680115L36.0865 10.8157L31.1439 13.6312V28.5529L18.2932 36.1546L5.44256 28.5529L5.44257 13.6312ZM30.6085 13.9362L26.2013 16.4466L26.2013 16.3902L18.2932 11.8292L10.3851 16.3902V16.4466L5.978 13.9362V28.2411L18.2932 35.526L30.6085 28.2411V13.9362Z" fill="#565656"/>
<path d="M45.5603 29.4848V12.457H48.6919V26.5657H56.2838V29.4848H45.5603Z" fill="#565656"/>
<path d="M63.0449 29.8253C61.8746 29.8253 60.8228 29.5821 59.8896 29.0955C58.9565 28.609 58.221 27.9036 57.6833 26.9792C57.1455 26.0549 56.8766 24.944 56.8766 23.6467V23.2574C56.8766 21.9601 57.1455 20.8492 57.6833 19.9249C58.221 19.0005 58.9565 18.2951 59.8896 17.8086C60.8228 17.322 61.8746 17.0788 63.0449 17.0788C64.2154 17.0788 65.2672 17.322 66.2003 17.8086C67.1335 18.2951 67.8689 19.0005 68.4067 19.9249C68.9444 20.8492 69.2133 21.9601 69.2133 23.2574V23.6467C69.2133 24.944 68.9444 26.0549 68.4067 26.9792C67.8689 27.9036 67.1335 28.609 66.2003 29.0955C65.2672 29.5821 64.2154 29.8253 63.0449 29.8253ZM63.0449 27.1008C63.9623 27.1008 64.7215 26.8009 65.3225 26.2008C65.9236 25.5846 66.224 24.7088 66.224 23.5737V23.3305C66.224 22.1953 65.9236 21.3276 65.3225 20.7276C64.7373 20.1114 63.9781 19.8033 63.0449 19.8033C62.1277 19.8033 61.3684 20.1114 60.7675 20.7276C60.1664 21.3276 59.866 22.1953 59.866 23.3305V23.5737C59.866 24.7088 60.1664 25.5846 60.7675 26.2008C61.3684 26.8009 62.1277 27.1008 63.0449 27.1008Z" fill="#565656"/>
<path d="M70.3356 23.5007V23.1115C70.3356 21.8466 70.5807 20.7682 71.071 19.8762C71.5613 18.9681 72.2098 18.2788 73.0164 17.8086C73.8389 17.322 74.7325 17.0788 75.6972 17.0788C76.7728 17.0788 77.5873 17.2735 78.1408 17.6626C78.6944 18.0518 79.0978 18.4573 79.3508 18.8789H79.7779V17.4193H82.7197V31.6254C82.7197 32.4524 82.4824 33.1092 82.0079 33.5958C81.5334 34.0985 80.9008 34.3499 80.11 34.3499H72.2335V31.6741H79.0661C79.5089 31.6741 79.7304 31.4308 79.7304 30.9443V27.8063H79.3033C79.1451 28.0657 78.9237 28.3333 78.6391 28.609C78.3543 28.8685 77.9748 29.0874 77.5003 29.2659C77.0258 29.4442 76.4248 29.5334 75.6972 29.5334C74.7325 29.5334 73.8389 29.2982 73.0164 28.8279C72.2098 28.3414 71.5613 27.6522 71.071 26.7603C70.5807 25.8522 70.3356 24.7657 70.3356 23.5007ZM76.5514 26.8576C77.4686 26.8576 78.2357 26.5576 78.8526 25.9576C79.4695 25.3576 79.7779 24.5143 79.7779 23.4278V23.1845C79.7779 22.0817 79.4695 21.2385 78.8526 20.6547C78.2515 20.0547 77.4845 19.7546 76.5514 19.7546C75.634 19.7546 74.8669 20.0547 74.2501 20.6547C73.6333 21.2385 73.3248 22.0817 73.3248 23.1845V23.4278C73.3248 24.5143 73.6333 25.3576 74.2501 25.9576C74.8669 26.5576 75.634 26.8576 76.5514 26.8576Z" fill="#565656"/>
<path d="M90.5652 29.8253C89.3947 29.8253 88.343 29.5821 87.4098 29.0955C86.4766 28.609 85.7412 27.9036 85.2035 26.9792C84.6658 26.0549 84.3969 24.944 84.3969 23.6467V23.2574C84.3969 21.9601 84.6658 20.8492 85.2035 19.9249C85.7412 19.0005 86.4766 18.2951 87.4098 17.8086C88.343 17.322 89.3947 17.0788 90.5652 17.0788C91.7355 17.0788 92.7873 17.322 93.7205 17.8086C94.6537 18.2951 95.3891 19.0005 95.9268 19.9249C96.4646 20.8492 96.7335 21.9601 96.7335 23.2574V23.6467C96.7335 24.944 96.4646 26.0549 95.9268 26.9792C95.3891 27.9036 94.6537 28.609 93.7205 29.0955C92.7873 29.5821 91.7355 29.8253 90.5652 29.8253ZM90.5652 27.1008C91.4825 27.1008 92.2417 26.8009 92.8427 26.2008C93.4437 25.5846 93.7443 24.7088 93.7443 23.5737V23.3305C93.7443 22.1953 93.4437 21.3276 92.8427 20.7276C92.2575 20.1114 91.4984 19.8033 90.5652 19.8033C89.6478 19.8033 88.8887 20.1114 88.2876 20.7276C87.6867 21.3276 87.3861 22.1953 87.3861 23.3305V23.5737C87.3861 24.7088 87.6867 25.5846 88.2876 26.2008C88.8887 26.8009 89.6478 27.1008 90.5652 27.1008Z" fill="#565656"/>
<path d="M98.4251 29.4848V17.4193H101.414V29.4848H98.4251ZM99.9197 16.0085C99.382 16.0085 98.9233 15.8302 98.5437 15.4733C98.18 15.1165 97.9981 14.6462 97.9981 14.0625C97.9981 13.4787 98.18 13.0084 98.5437 12.6516C98.9233 12.2949 99.382 12.1164 99.9197 12.1164C100.473 12.1164 100.932 12.2949 101.296 12.6516C101.66 13.0084 101.841 13.4787 101.841 14.0625C101.841 14.6462 101.66 15.1165 101.296 15.4733C100.932 15.8302 100.473 16.0085 99.9197 16.0085Z" fill="#565656"/>
<path d="M103.659 34.3499V17.4193H106.601V18.8789H107.029C107.297 18.4086 107.716 17.9951 108.286 17.6383C108.855 17.2653 109.67 17.0788 110.729 17.0788C111.679 17.0788 112.556 17.322 113.362 17.8086C114.169 18.2788 114.818 18.9761 115.308 19.9006C115.798 20.8249 116.043 21.9439 116.043 23.2574V23.6467C116.043 24.9602 115.798 26.0792 115.308 27.0035C114.818 27.928 114.169 28.6334 113.362 29.1199C112.556 29.5902 111.679 29.8253 110.729 29.8253C110.017 29.8253 109.416 29.7361 108.926 29.5577C108.451 29.3955 108.064 29.1847 107.764 28.9252C107.479 28.6496 107.25 28.3739 107.076 28.0982H106.649V34.3499H103.659ZM109.828 27.1495C110.761 27.1495 111.528 26.8494 112.129 26.2494C112.746 25.6333 113.054 24.7413 113.054 23.5737V23.3305C113.054 22.1628 112.746 21.2789 112.129 20.6789C111.512 20.0628 110.745 19.7546 109.828 19.7546C108.91 19.7546 108.143 20.0628 107.526 20.6789C106.91 21.2789 106.601 22.1628 106.601 23.3305V23.5737C106.601 24.7413 106.91 25.6333 107.526 26.2494C108.143 26.8494 108.91 27.1495 109.828 27.1495Z" fill="#565656"/>
<path d="M122.608 29.8253C121.073 29.8253 119.816 29.4848 118.835 28.8036C117.856 28.1225 117.262 27.1495 117.056 25.8845L119.809 25.1549C119.919 25.7224 120.101 26.1684 120.354 26.4927C120.623 26.8171 120.947 27.0522 121.327 27.1982C121.722 27.3279 122.149 27.3928 122.608 27.3928C123.303 27.3928 123.818 27.2711 124.15 27.0279C124.482 26.7684 124.648 26.4522 124.648 26.0792C124.648 25.7062 124.49 25.4224 124.173 25.2278C123.858 25.017 123.352 24.8467 122.655 24.717L121.991 24.5953C121.168 24.4331 120.417 24.2142 119.737 23.9386C119.057 23.6467 118.511 23.2493 118.1 22.7466C117.689 22.2439 117.483 21.5952 117.483 20.8005C117.483 19.6005 117.91 18.6843 118.765 18.0518C119.618 17.4032 120.742 17.0788 122.133 17.0788C123.446 17.0788 124.538 17.3789 125.407 17.9789C126.277 18.5789 126.846 19.3654 127.116 20.3384L124.34 21.2141C124.213 20.5979 123.952 20.16 123.557 19.9006C123.177 19.6411 122.702 19.5113 122.133 19.5113C121.564 19.5113 121.129 19.6167 120.828 19.8275C120.528 20.0222 120.378 20.2979 120.378 20.6547C120.378 21.0438 120.536 21.3357 120.852 21.5303C121.168 21.7087 121.595 21.8466 122.133 21.9439L122.797 22.0655C123.683 22.2277 124.482 22.4466 125.194 22.7223C125.921 22.9817 126.491 23.3628 126.902 23.8656C127.329 24.3521 127.543 25.017 127.543 25.8603C127.543 27.1252 127.091 28.1063 126.19 28.8036C125.305 29.4848 124.11 29.8253 122.608 29.8253Z" fill="#565656"/>
<path d="M133.578 29.6793C132.661 29.6793 131.854 29.4685 131.159 29.0469C130.479 28.609 129.948 28.009 129.569 27.2468C129.19 26.4847 128.999 25.6089 128.999 24.6197V17.4193H131.989V24.3764C131.989 25.2845 132.202 25.9657 132.63 26.4197C133.072 26.8738 133.697 27.1008 134.504 27.1008C135.42 27.1008 136.133 26.7927 136.639 26.1765C137.145 25.544 137.398 24.6684 137.398 23.5494V17.4193H140.387V29.4848H137.445V27.9036H137.019C136.828 28.309 136.473 28.7063 135.951 29.0955C135.429 29.4848 134.637 29.6793 133.578 29.6793Z" fill="#565656"/>
<path d="M142.646 29.4848V17.4193H145.588V18.733H146.015C146.22 18.3275 146.561 17.9789 147.034 17.6869C147.509 17.3789 148.134 17.2248 148.91 17.2248C149.747 17.2248 150.42 17.3951 150.926 17.7356C151.432 18.0599 151.819 18.4897 152.089 19.0248H152.515C152.784 18.5059 153.164 18.0762 153.654 17.7356C154.145 17.3951 154.84 17.2248 155.742 17.2248C156.469 17.2248 157.126 17.387 157.711 17.7113C158.312 18.0193 158.786 18.4977 159.135 19.1465C159.498 19.7789 159.68 20.5816 159.68 21.5547V29.4848H156.69V21.7736C156.69 21.1087 156.525 20.6141 156.192 20.2898C155.86 19.9493 155.394 19.7789 154.793 19.7789C154.113 19.7789 153.583 20.006 153.203 20.46C152.84 20.8979 152.658 21.5303 152.658 22.3575V29.4848H149.668V21.7736C149.668 21.1087 149.502 20.6141 149.171 20.2898C148.838 19.9493 148.372 19.7789 147.77 19.7789C147.09 19.7789 146.561 20.006 146.181 20.46C145.817 20.8979 145.635 21.5303 145.635 22.3575V29.4848H142.646Z" fill="#565656"/>
</svg>
