<svg width="658" height="142" viewBox="0 0 658 142" fill="none" xmlns="http://www.w3.org/2000/svg">
<path d="M176.353 112.37C167.62 112.37 161.998 111.89 153.025 110.091V28.5184H183.411C199.322 28.5184 209.371 36.7956 209.371 48.4317C209.371 54.3097 207.576 59.7079 201.834 63.9065C199.561 65.5859 197.647 66.5456 193.819 67.0254C197.169 67.5053 199.083 68.1051 202.671 70.1444C208.055 73.2633 212.003 80.341 212.003 87.4186C212.003 107.092 195.254 112.49 176.353 112.37ZM172.764 94.3763C175.755 94.8561 177.43 94.9761 180.181 94.9761C189.034 94.9761 193.46 91.8571 193.46 85.4992C193.46 79.8611 188.794 76.1424 183.052 76.1424H172.764V94.3763ZM172.764 59.9478H184.129C187.359 59.9478 190.11 56.7089 190.11 52.6303C190.11 49.2714 187.598 46.5123 183.411 46.5123H172.764V59.9478Z" fill="#280A03"/>
<path d="M222.28 110.691V50.9509L242.019 50.8309V110.691H222.28ZM232.329 43.5133C226.587 43.5133 222.28 39.1948 222.28 33.3168C222.28 27.4388 226.587 23.0002 232.329 23.0002C238.311 23.0002 242.857 27.4388 242.857 33.3168C242.857 39.1948 238.311 43.5133 232.329 43.5133Z" fill="#280A03"/>
<path d="M277.698 114.17C266.334 113.81 256.883 108.891 250.662 101.934L261.668 89.6978C266.812 94.1363 272.554 96.1756 277.698 96.1756C281.886 96.1756 283.68 94.8561 283.68 93.2966C283.68 89.8178 275.545 87.7785 270.76 85.9791C263.343 83.22 253.773 77.342 253.773 65.9458C253.773 54.3097 263.582 46.9922 277.579 46.9922C286.192 46.9922 294.686 49.7513 299.83 54.0698L290.858 67.8652C286.073 64.7462 281.766 63.6666 278.656 63.6666C276.024 63.6666 274.469 64.3863 274.469 66.0658C274.469 68.8248 278.775 69.6646 286.79 73.1434C298.394 78.1817 304.256 82.9801 304.256 92.8168C304.256 106.732 292.413 114.649 277.698 114.17Z" fill="#280A03"/>
<path d="M349.652 142V108.292C345.824 111.051 341.278 112.49 336.373 112.49C321.06 112.49 309.576 99.7744 309.576 81.6605C309.576 61.5073 321.658 47.8319 344.149 47.3521C347.259 47.3521 350.369 47.472 353.36 48.0718C358.863 48.7916 366.998 51.1908 369.39 52.5103V142H349.652ZM329.554 81.5406C329.554 89.218 333.621 95.216 339.603 95.216C344.747 95.216 349.412 90.8974 349.652 83.6998V65.2261C347.857 64.9861 346.182 64.8662 344.866 64.8662C334.219 64.8662 329.554 71.9438 329.554 81.5406Z" fill="#280A03"/>
<path d="M439.872 90.2976V90.6575C439.872 96.5355 441.428 100.854 444.299 103.853L430.541 115.369C427.431 112.73 424.56 108.891 422.646 104.213C417.621 110.091 410.922 113.45 403.386 113.45C390.944 113.45 381.494 102.893 381.494 87.5386V50.591H401.232V86.219C401.232 92.217 403.625 96.1756 409.128 96.1756C413.913 96.1756 417.98 93.0567 420.253 88.6182V50.8309H439.992L439.872 90.2976Z" fill="#280A03"/>
<path d="M480.998 113.57C462.575 113.57 449.416 100.974 449.416 81.0607C449.416 61.7472 461.857 48.1918 480.041 48.1918C496.669 48.1918 508.512 59.5879 508.512 75.5426C508.512 79.1414 507.914 83.1 506.718 86.6988H470.59C472.384 93.4166 477.17 95.5759 483.749 95.5759C489.013 95.5759 494.516 92.8168 498.344 89.218L507.914 101.814C502.531 107.692 493.32 113.57 480.998 113.57ZM470.59 73.0234H488.774C488.176 67.9851 485.424 65.346 480.16 65.346C476.093 65.346 472.265 67.0254 470.59 73.0234Z" fill="#280A03"/>
<path d="M518.566 71.344V70.9841C518.566 65.1061 517.011 60.7875 514.14 57.7885L527.897 46.2724C530.768 48.6716 533.28 52.0305 535.194 56.1091C537.348 53.47 540.099 51.1908 543.568 49.7513C549.43 47.2321 555.651 47.592 559.24 49.0315L556.488 66.9055C554.335 65.5859 551.105 64.9861 549.789 64.9861C542.851 64.9861 539.262 69.0648 538.185 72.9035V110.811H518.446L518.566 71.344Z" fill="#280A03"/>
<path d="M566.915 110.691V50.9509L586.654 50.8309V110.691H566.915ZM576.964 43.5133C571.221 43.5133 566.915 39.1948 566.915 33.3168C566.915 27.4388 571.221 23.0002 576.964 23.0002C582.945 23.0002 587.491 27.4388 587.491 33.3168C587.491 39.1948 582.945 43.5133 576.964 43.5133Z" fill="#280A03"/>
<path d="M643.388 115.249C639.918 112.97 637.287 109.131 635.731 105.772C632.382 109.971 626.52 114.05 619.342 114.05C605.824 114.05 596.613 104.933 596.613 93.4166C596.613 79.7412 607.14 71.344 624.726 72.1837L632.023 72.7835V70.5043C632.023 66.6656 628.195 64.5063 622.931 64.5063C617.548 64.5063 609.892 66.9055 606.063 69.7845L598.168 56.589C604.747 51.3107 616.471 47.2321 627.357 47.2321C643.148 47.2321 651.642 55.8692 651.642 70.9841V90.2976C651.642 95.6958 654.035 101.454 657.025 104.213L643.388 115.249ZM622.094 97.4952C627.836 97.4952 632.023 94.0164 632.023 89.3379V86.9388C627.716 86.219 625.802 86.099 623.769 86.099C618.026 86.099 615.036 88.1383 615.036 91.8571C615.036 95.3359 617.787 97.4952 622.094 97.4952Z" fill="#280A03"/>
<path d="M11.9834 77.8903H110.844L107.849 59.9156L98.8612 44.8368L83.8823 32.9535L62.7355 30.134C61.8583 30.017 60.9694 30.017 60.0922 30.134L38.9455 32.9535L22.4686 44.8368L14.9792 59.9156L11.9834 77.8903Z" fill="#FFCC0F"/>
<path d="M118.441 68.1264C116.79 68.1169 115.144 68.294 113.532 68.6545C111.907 57.0104 106.185 46.35 97.4173 38.6302C88.6493 30.9105 77.4234 26.6494 65.8003 26.6292H57.0269C45.4032 26.6495 34.1767 30.9113 25.4087 38.6319C16.6406 46.3526 10.9194 57.0141 9.29539 68.659C7.68426 68.2946 6.03754 68.116 4.38669 68.1264C3.22327 68.1264 2.10749 68.594 1.28483 69.4263C0.462167 70.2586 0 71.3875 0 72.5646C0 73.7417 0.462167 74.8705 1.28483 75.7029C2.10749 76.5352 3.22327 77.0028 4.38669 77.0028C5.44807 76.994 6.5063 77.1208 7.53633 77.38L15.9719 109.899C16.7107 112.745 18.3606 115.263 20.6637 117.06C22.9669 118.857 25.7936 119.832 28.7021 119.831H94.1251C97.0321 119.83 99.8568 118.854 102.158 117.058C104.46 115.261 106.108 112.743 106.847 109.899L115.291 77.38C116.321 77.1204 117.379 76.9936 118.441 77.0028C119.604 77.0028 120.72 76.5352 121.542 75.7029C122.365 74.8705 122.827 73.7417 122.827 72.5646C122.827 71.3875 122.365 70.2586 121.542 69.4263C120.72 68.594 119.604 68.1264 118.441 68.1264ZM57.0269 35.5056H65.8003C75.7653 35.521 85.3563 39.3464 92.6511 46.2149C99.9459 53.0834 104.405 62.4875 105.136 72.5424C103.388 73.4988 101.418 73.9589 99.433 73.8739C96.8364 73.9463 94.2879 73.1559 92.1775 71.6237C88.6727 69.3267 84.586 68.1046 80.4102 68.1046C76.2343 68.1046 72.1476 69.3267 68.6429 71.6237C66.5063 73.0873 63.9851 73.8696 61.4048 73.8696C58.8245 73.8696 56.3034 73.0873 54.1668 71.6237C50.6992 69.2549 46.5938 68.0259 42.4105 68.1042C38.2273 68.0264 34.122 69.2554 30.6542 71.6237C28.5498 73.1549 26.0072 73.9453 23.4161 73.8739C21.4311 73.9609 19.46 73.5007 17.7134 72.5424C18.4435 62.4913 22.8999 53.0903 30.19 46.2224C37.4801 39.3544 47.0657 35.5266 57.0269 35.5056Z" fill="#280A03"/>
<path d="M61.4136 57.6966C62.577 57.6966 63.6928 57.229 64.5155 56.3967C65.3381 55.5644 65.8003 54.4355 65.8003 53.2584V44.382C65.8003 43.2049 65.3381 42.0761 64.5155 41.2437C63.6928 40.4114 62.577 39.9438 61.4136 39.9438C60.2502 39.9438 59.1344 40.4114 58.3118 41.2437C57.4891 42.0761 57.0269 43.2049 57.0269 44.382V53.2584C57.0269 54.4355 57.4891 55.5644 58.3118 56.3967C59.1344 57.229 60.2502 57.6966 61.4136 57.6966Z" fill="#280A03"/>
<path d="M76.3591 55.2467C76.9658 56.2514 77.9421 56.971 79.0733 57.2474C80.2044 57.5237 81.3978 57.3341 82.3908 56.7202C83.3837 56.1064 84.095 55.1186 84.3681 53.9741C84.6413 52.8297 84.4539 51.6223 83.8471 50.6177L81.5617 46.8319C80.952 45.8273 79.9729 45.1088 78.8397 44.8345C77.7065 44.5603 76.512 44.7527 75.519 45.3695C74.526 45.9863 73.8159 46.9769 73.5448 48.1235C73.2738 49.27 73.464 50.4785 74.0736 51.4831L76.3591 55.2467Z" fill="#280A03"/>
<path d="M40.4365 56.7202C40.9281 57.0243 41.4742 57.2274 42.0434 57.3179C42.6126 57.4084 43.1939 57.3846 43.754 57.2477C44.3142 57.1109 44.8422 56.8638 45.3079 56.5204C45.7736 56.1771 46.1678 55.7443 46.4682 55.2467L48.7536 51.461C49.3604 50.4563 49.5478 49.249 49.2747 48.1045C49.0015 46.9601 48.2902 45.9723 47.2973 45.3584C46.3043 44.7446 45.1109 44.555 43.9798 44.8313C42.8486 45.1076 41.8723 45.8273 41.2656 46.8319L38.9801 50.6177C38.6796 51.1151 38.4788 51.6676 38.3894 52.2435C38.2999 52.8194 38.3235 53.4075 38.4587 53.9742C38.594 54.5409 38.8382 55.0751 39.1776 55.5463C39.5169 56.0175 39.9447 56.4164 40.4365 56.7202Z" fill="#280A03"/>
<path d="M52.6402 17.7528C53.8037 17.7528 54.9194 17.2852 55.7421 16.4529C56.5648 15.6206 57.0269 14.4917 57.0269 13.3146V4.4382C57.0269 3.26112 56.5648 2.13224 55.7421 1.29992C54.9194 0.467595 53.8037 0 52.6402 0C51.4768 0 50.3611 0.467595 49.5384 1.29992C48.7157 2.13224 48.2536 3.26112 48.2536 4.4382V13.3146C48.2536 14.4917 48.7157 15.6206 49.5384 16.4529C50.3611 17.2852 51.4768 17.7528 52.6402 17.7528Z" fill="#280A03"/>
<path d="M70.187 17.7528C71.3504 17.7528 72.4662 17.2852 73.2889 16.4529C74.1115 15.6206 74.5737 14.4917 74.5737 13.3146V4.4382C74.5737 3.26112 74.1115 2.13224 73.2889 1.29992C72.4662 0.467595 71.3504 0 70.187 0C69.0236 0 67.9078 0.467595 67.0851 1.29992C66.2625 2.13224 65.8003 3.26112 65.8003 4.4382V13.3146C65.8003 14.4917 66.2625 15.6206 67.0851 16.4529C67.9078 17.2852 69.0236 17.7528 70.187 17.7528Z" fill="#280A03"/>
</svg>
