<svg width="93" height="16" viewBox="0 0 93 16" fill="none" xmlns="http://www.w3.org/2000/svg">
<path d="M9.12552 0.38319L11.3741 4.87294L16.402 5.59291C16.9741 5.6748 17.2026 6.36771 16.7886 6.76542L13.1503 10.2602L14.0092 15.1949C14.1069 15.7564 13.5088 16.1846 12.9971 15.9195L8.49997 13.5897L4.00289 15.9195C3.49117 16.1846 2.89305 15.7564 2.9908 15.1949L3.84966 10.2602L0.21141 6.76539C-0.202598 6.36768 0.0258714 5.67484 0.598026 5.59287L5.62592 4.87291L7.87446 0.38319C8.13036 -0.12773 8.86962 -0.12773 9.12552 0.38319Z" fill="#FF9924"/>
<path d="M11.3741 4.87294L9.12552 0.38319C8.99759 0.127746 8.7488 8.17237e-06 8.50001 8.17237e-06V8.50026L11.3741 4.87294Z" fill="#FF9924"/>
<path d="M13.1503 10.2602L16.7886 6.76542C16.9928 6.56923 17.0404 6.30122 16.9678 6.07016L8.50001 8.50026L13.1503 10.2602Z" fill="#FF9924"/>
<path d="M13.7338 15.8656L8.50001 8.50026L8.49997 13.5897L12.9971 15.9195C13.2539 16.0526 13.5323 16.0109 13.7338 15.8656Z" fill="#FF9924"/>
<path d="M8.50001 8.50026L3.84966 10.2602L2.9908 15.1949C2.94209 15.4746 3.0662 15.7212 3.26619 15.8656L8.50001 8.50026Z" fill="#FF9924"/>
<path d="M0.0321468 6.07019L8.50001 8.50026L5.62592 4.87291L0.598026 5.59287C0.30813 5.63436 0.106721 5.83284 0.0321468 6.07019Z" fill="#FF9924"/>
<path d="M3.84966 10.2602L0.21141 6.76539C0.00717814 6.5692 -0.0404682 6.30126 0.0321468 6.07019L8.50001 8.50026L3.84966 10.2602Z" fill="#FF9924"/>
<path d="M28.1255 0.38319L30.3741 4.87294L35.402 5.59291C35.9741 5.6748 36.2026 6.36771 35.7886 6.76542L32.1503 10.2602L33.0092 15.1949C33.1069 15.7564 32.5088 16.1846 31.9971 15.9195L27.5 13.5897L23.0029 15.9195C22.4912 16.1846 21.893 15.7564 21.9908 15.1949L22.8497 10.2602L19.2114 6.76539C18.7974 6.36768 19.0259 5.67484 19.598 5.59287L24.6259 4.87291L26.8745 0.38319C27.1304 -0.12773 27.8696 -0.12773 28.1255 0.38319Z" fill="#FF9924"/>
<path d="M30.3741 4.87294L28.1255 0.38319C27.9976 0.127746 27.7488 8.17237e-06 27.5 8.17237e-06V8.50026L30.3741 4.87294Z" fill="#FF9924"/>
<path d="M32.1503 10.2602L35.7886 6.76542C35.9928 6.56923 36.0404 6.30122 35.9678 6.07016L27.5 8.50026L32.1503 10.2602Z" fill="#FF9924"/>
<path d="M32.7338 15.8656L27.5 8.50026L27.5 13.5897L31.9971 15.9195C32.2539 16.0526 32.5323 16.0109 32.7338 15.8656Z" fill="#FF9924"/>
<path d="M27.5 8.50026L22.8497 10.2602L21.9908 15.1949C21.9421 15.4746 22.0662 15.7212 22.2662 15.8656L27.5 8.50026Z" fill="#FF9924"/>
<path d="M19.0321 6.07019L27.5 8.50026L24.6259 4.87291L19.598 5.59287C19.3081 5.63436 19.1067 5.83284 19.0321 6.07019Z" fill="#FF9924"/>
<path d="M22.8497 10.2602L19.2114 6.76539C19.0072 6.5692 18.9595 6.30126 19.0321 6.07019L27.5 8.50026L22.8497 10.2602Z" fill="#FF9924"/>
<path d="M47.1255 0.38319L49.3741 4.87294L54.402 5.59291C54.9741 5.6748 55.2026 6.36771 54.7886 6.76542L51.1503 10.2602L52.0092 15.1949C52.1069 15.7564 51.5088 16.1846 50.9971 15.9195L46.5 13.5897L42.0029 15.9195C41.4912 16.1846 40.893 15.7564 40.9908 15.1949L41.8497 10.2602L38.2114 6.76539C37.7974 6.36768 38.0259 5.67484 38.598 5.59287L43.6259 4.87291L45.8745 0.38319C46.1304 -0.12773 46.8696 -0.12773 47.1255 0.38319Z" fill="#FF9924"/>
<path d="M49.3741 4.87294L47.1255 0.38319C46.9976 0.127746 46.7488 8.17237e-06 46.5 8.17237e-06V8.50026L49.3741 4.87294Z" fill="#FF9924"/>
<path d="M51.1503 10.2602L54.7886 6.76542C54.9928 6.56923 55.0404 6.30122 54.9678 6.07016L46.5 8.50026L51.1503 10.2602Z" fill="#FF9924"/>
<path d="M51.7338 15.8656L46.5 8.50026L46.5 13.5897L50.9971 15.9195C51.2539 16.0526 51.5323 16.0109 51.7338 15.8656Z" fill="#FF9924"/>
<path d="M46.5 8.50026L41.8497 10.2602L40.9908 15.1949C40.9421 15.4746 41.0662 15.7212 41.2662 15.8656L46.5 8.50026Z" fill="#FF9924"/>
<path d="M38.0321 6.07019L46.5 8.50026L43.6259 4.87291L38.598 5.59287C38.3081 5.63436 38.1067 5.83284 38.0321 6.07019Z" fill="#FF9924"/>
<path d="M41.8497 10.2602L38.2114 6.76539C38.0072 6.5692 37.9595 6.30126 38.0321 6.07019L46.5 8.50026L41.8497 10.2602Z" fill="#FF9924"/>
<path d="M66.1255 0.38319L68.3741 4.87294L73.402 5.59291C73.9741 5.6748 74.2026 6.36771 73.7886 6.76542L70.1503 10.2602L71.0092 15.1949C71.1069 15.7564 70.5088 16.1846 69.9971 15.9195L65.5 13.5897L61.0029 15.9195C60.4912 16.1846 59.893 15.7564 59.9908 15.1949L60.8497 10.2602L57.2114 6.76539C56.7974 6.36768 57.0259 5.67484 57.598 5.59287L62.6259 4.87291L64.8745 0.38319C65.1304 -0.12773 65.8696 -0.12773 66.1255 0.38319Z" fill="#FF9924"/>
<path d="M68.3741 4.87294L66.1255 0.38319C65.9976 0.127746 65.7488 8.17237e-06 65.5 8.17237e-06V8.50026L68.3741 4.87294Z" fill="#FF9924"/>
<path d="M70.1503 10.2602L73.7886 6.76542C73.9928 6.56923 74.0404 6.30122 73.9678 6.07016L65.5 8.50026L70.1503 10.2602Z" fill="#FF9924"/>
<path d="M70.7338 15.8656L65.5 8.50026L65.5 13.5897L69.9971 15.9195C70.2539 16.0526 70.5323 16.0109 70.7338 15.8656Z" fill="#FF9924"/>
<path d="M65.5 8.50026L60.8497 10.2602L59.9908 15.1949C59.9421 15.4746 60.0662 15.7212 60.2662 15.8656L65.5 8.50026Z" fill="#FF9924"/>
<path d="M57.0321 6.07019L65.5 8.50026L62.6259 4.87291L57.598 5.59287C57.3081 5.63436 57.1067 5.83284 57.0321 6.07019Z" fill="#FF9924"/>
<path d="M60.8497 10.2602L57.2114 6.76539C57.0072 6.5692 56.9595 6.30126 57.0321 6.07019L65.5 8.50026L60.8497 10.2602Z" fill="#FF9924"/>
<path d="M85.1255 0.38319L87.3741 4.87294L92.402 5.59291C92.9741 5.6748 93.2026 6.36771 92.7886 6.76542L89.1503 10.2602L90.0092 15.1949C90.1069 15.7564 89.5088 16.1846 88.9971 15.9195L84.5 13.5897L80.0029 15.9195C79.4912 16.1846 78.893 15.7564 78.9908 15.1949L79.8497 10.2602L76.2114 6.76539C75.7974 6.36768 76.0259 5.67484 76.598 5.59287L81.6259 4.87291L83.8745 0.38319C84.1304 -0.12773 84.8696 -0.12773 85.1255 0.38319Z" fill="#FF9924"/>
<path d="M87.3741 4.87294L85.1255 0.38319C84.9976 0.127746 84.7488 8.17237e-06 84.5 8.17237e-06V8.50026L87.3741 4.87294Z" fill="#FF9924"/>
<path d="M89.1503 10.2602L92.7886 6.76542C92.9928 6.56923 93.0404 6.30122 92.9678 6.07016L84.5 8.50026L89.1503 10.2602Z" fill="#FF9924"/>
<path d="M89.7338 15.8656L84.5 8.50026L84.5 13.5897L88.9971 15.9195C89.2539 16.0526 89.5323 16.0109 89.7338 15.8656Z" fill="#FF9924"/>
<path d="M84.5 8.50026L79.8497 10.2602L78.9908 15.1949C78.9421 15.4746 79.0662 15.7212 79.2662 15.8656L84.5 8.50026Z" fill="#FF9924"/>
<path d="M76.0321 6.07019L84.5 8.50026L81.6259 4.87291L76.598 5.59287C76.3081 5.63436 76.1067 5.83284 76.0321 6.07019Z" fill="#FF9924"/>
<path d="M79.8497 10.2602L76.2114 6.76539C76.0072 6.5692 75.9595 6.30126 76.0321 6.07019L84.5 8.50026L79.8497 10.2602Z" fill="#FF9924"/>
</svg>
