<svg width="18" height="20" viewBox="0 0 18 20" fill="none" xmlns="http://www.w3.org/2000/svg">
<path d="M17.2188 6.25H14.875V5.46875C14.875 2.45328 12.4217 0 9.40625 0C6.39078 0 3.9375 2.45328 3.9375 5.46875V6.25H1.59375C1.16227 6.25 0.8125 6.59977 0.8125 7.03125V16.0938C0.8125 18.2477 2.5648 20 4.71875 20H14.0938C16.2477 20 18 18.2477 18 16.0938V7.03125C18 6.59977 17.6502 6.25 17.2188 6.25ZM5.5 5.46875C5.5 3.31484 7.2523 1.5625 9.40625 1.5625C11.5602 1.5625 13.3125 3.31484 13.3125 5.46875V6.25H5.5V5.46875ZM16.4375 16.0938C16.4375 17.3861 15.3861 18.4375 14.0938 18.4375H4.71875C3.42641 18.4375 2.375 17.3861 2.375 16.0938V7.8125H3.9375V10.1562C3.9375 10.5877 4.28727 10.9375 4.71875 10.9375C5.15023 10.9375 5.5 10.5877 5.5 10.1562V7.8125H13.3125V10.1562C13.3125 10.5877 13.6623 10.9375 14.0938 10.9375C14.5252 10.9375 14.875 10.5877 14.875 10.1562V7.8125H16.4375V16.0938Z" fill="#280A03"/>
</svg>
