<svg width="24" height="20" viewBox="0 0 24 20" fill="none" xmlns="http://www.w3.org/2000/svg">
<path d="M17.6307 0C15.6369 0 13.9041 0.912636 12.6195 2.63918C12.4545 2.86105 12.3071 3.083 12.1762 3.29832C12.0452 3.08295 11.8979 2.86105 11.7328 2.63918C10.4483 0.912636 8.71539 0 6.72161 0C3.02916 0 0.539795 2.96605 0.539795 6.60236C0.539795 11.3481 5.05034 14.3359 11.5942 19.7893C11.7627 19.9297 11.9694 20 12.1762 20C12.3829 20 12.5896 19.9298 12.7582 19.7893C19.3004 14.3374 23.8125 11.3487 23.8125 6.60236C23.8125 2.96818 21.3253 0 17.6307 0ZM12.1762 17.9093C6.15061 12.9243 2.35798 10.2825 2.35798 6.60236C2.35798 4.22495 3.85689 1.81818 6.72161 1.81818C8.12157 1.81818 9.30625 2.4455 10.2428 3.68277C10.9848 4.66309 11.2932 5.67486 11.3031 5.70795C11.4158 6.09632 11.7716 6.36364 12.1762 6.36364C12.5813 6.36364 12.9376 6.0955 13.0497 5.70614C13.0609 5.66727 14.2091 1.81818 17.6307 1.81818C20.4954 1.81818 21.9943 4.22495 21.9943 6.60236C21.9943 10.2861 18.1826 12.9404 12.1762 17.9093Z" fill="#280A03"/>
</svg>
