<svg width="62" height="65" viewBox="0 0 62 65" fill="none" xmlns="http://www.w3.org/2000/svg">
<path d="M12.8749 20.922L12.8715 20.9207L12.865 20.9179C12.8488 20.9107 12.832 20.9077 12.8157 20.9015L12.8103 20.8996C12.7823 20.8883 12.7538 20.8785 12.7249 20.8701C12.7156 20.8677 12.7067 20.8643 12.6973 20.8622C12.6792 20.858 12.661 20.8578 12.6428 20.8549L12.637 20.8541C12.6095 20.8499 12.5823 20.8448 12.5546 20.8432C12.5444 20.8425 12.5343 20.8408 12.524 20.8405C12.5062 20.84 12.4887 20.8433 12.4709 20.8439L12.4658 20.8443C12.438 20.8453 12.4103 20.8458 12.3826 20.8496C12.3726 20.851 12.3625 20.8513 12.3526 20.8529C12.3353 20.856 12.3191 20.8623 12.302 20.8662C12.2725 20.8724 12.2433 20.88 12.2146 20.8891C12.2058 20.8921 12.1968 20.8943 12.1882 20.8976C12.1725 20.9034 12.1582 20.9124 12.143 20.9191C12.1142 20.9311 12.086 20.9446 12.0586 20.9597C12.0509 20.9641 12.0428 20.9676 12.0352 20.9725C12.0192 20.9822 12.0054 20.9952 11.99 21.006C11.9657 21.0223 11.9421 21.0397 11.9196 21.0585C11.9128 21.0643 11.9055 21.0693 11.8989 21.0754C11.881 21.0917 11.8664 21.1116 11.8499 21.1294C11.8363 21.1444 11.8207 21.1562 11.8081 21.1721C11.8045 21.1765 11.8025 21.1814 11.7992 21.1857C11.794 21.1924 11.7881 21.1982 11.7831 21.2051C11.7686 21.2249 11.7577 21.2481 11.7447 21.2695C11.7304 21.293 11.7148 21.316 11.7029 21.3405C11.7003 21.3459 11.6965 21.3503 11.694 21.3557L11.6909 21.3626L11.6897 21.365L11.6884 21.3685C10.4266 24.0926 9.77635 27.0599 9.78343 30.062C9.78343 30.4759 9.79912 30.886 9.82315 31.2939L9.82226 31.3029C9.82226 31.3251 9.8272 31.3459 9.82872 31.3677C10.1663 36.6322 12.4939 41.5712 16.3393 45.1826C20.1845 48.7941 25.2597 50.8076 30.535 50.8146H30.5369C35.8222 50.8077 40.9063 48.7868 44.754 45.1633C48.6017 41.5397 50.9238 36.5861 51.2476 31.3106C51.2478 31.3043 51.2495 31.2984 51.2495 31.2919L51.2493 31.2893C51.2732 30.8828 51.2886 30.4743 51.2886 30.062C51.297 26.9309 50.5895 23.8393 49.2202 21.0234L49.2183 21.018L49.2133 21.01C49.2021 20.9878 49.1867 20.9673 49.1736 20.9458C49.156 20.9149 49.1366 20.8852 49.1155 20.8566L49.1121 20.8513C49.1009 20.8375 49.0874 20.8274 49.0758 20.8143C49.0501 20.7846 49.0225 20.7565 48.993 20.7305C48.9723 20.7126 48.9493 20.699 48.9271 20.6835C48.9141 20.6744 48.9018 20.6642 48.8883 20.6558C48.8803 20.6509 48.8734 20.6442 48.8653 20.6394L48.8528 20.6335C48.8248 20.6188 48.7961 20.6058 48.7668 20.5944C48.7475 20.5861 48.7294 20.5753 48.7096 20.5683L48.6971 20.5651C48.6668 20.5562 48.6361 20.5487 48.6051 20.543C48.5845 20.5386 48.5646 20.5312 48.5438 20.5283L48.5301 20.5275C48.4992 20.5245 48.4682 20.5232 48.4372 20.5234L48.4359 20.5233C48.4146 20.5229 48.3937 20.5195 48.3724 20.5206L48.3586 20.5224C48.3264 20.5256 48.2944 20.5305 48.2627 20.5371C48.2493 20.5396 48.2357 20.5404 48.2223 20.5434C48.2149 20.545 48.2073 20.5449 48.1998 20.5468L48.1883 20.5506C48.1536 20.5611 48.1196 20.5736 48.0865 20.5882C48.0674 20.5959 48.0476 20.6002 48.0289 20.6093C47.9687 20.6383 42.0064 23.5485 40.0368 24.5351C35.6948 26.7109 32.4888 29.7529 30.5299 33.3583C28.3793 29.4254 24.9801 26.3208 20.8688 24.5346C18.9296 23.6385 13.1302 21.0365 12.8773 20.9234L12.8749 20.922ZM12.8554 23.1718C15.4792 25.3605 17.8974 27.7844 20.0796 30.4136H11.5711C11.569 30.2961 11.5622 30.1799 11.5622 30.062C11.5579 27.7046 11.9965 25.3673 12.8554 23.1718ZM13.5624 38.5269C12.5679 36.5426 11.9323 34.3981 11.685 32.1923H21.4842C22.9965 34.193 24.3467 36.3114 25.5221 38.5269H13.5624ZM14.5777 40.3057H26.4119C27.2579 42.0943 27.9787 43.9395 28.5689 45.828C28.7424 46.8972 28.9863 47.9538 29.2989 48.9911C26.3368 48.7955 23.4619 47.9078 20.9052 46.3994C18.3486 44.891 16.1814 42.8038 14.5777 40.3057ZM31.671 48.9989C32.3905 46.006 33.4011 43.0907 34.6887 40.2947H46.5013C44.8891 42.8105 42.7056 44.9103 40.1285 46.4228C37.5515 47.9352 34.6537 48.8179 31.671 48.9989ZM39.4319 32.1813H49.3885C49.1424 34.3868 48.5082 36.5313 47.5152 38.5159H35.5554C36.6875 36.3105 37.9833 34.193 39.4319 32.1813ZM49.5012 30.4024H40.7689C42.944 27.6405 45.3962 25.1086 48.0875 22.8468C49.0323 25.1347 49.5156 27.5867 49.5098 30.062C49.5098 30.1761 49.5032 30.2887 49.5012 30.4024ZM40.8336 26.1251C41.378 25.8525 42.2305 25.4314 43.179 24.965C39.1818 29.0308 35.8806 33.7263 33.4077 38.8635C33.3321 38.9604 33.2777 39.0721 33.2478 39.1913C32.1714 41.4783 31.2724 43.8449 30.559 46.2697C30.482 46.0012 30.4018 45.7354 30.3203 45.4704C29.0589 37.3089 32.8568 30.1225 40.8336 26.1251ZM29.5613 35.439C28.95 37.0099 28.5548 38.6564 28.3865 40.3337C25.7334 34.5625 22.0238 29.3386 17.4492 24.9322C18.5273 25.4197 19.5161 25.8687 20.123 26.1489C24.5768 28.2056 27.7476 31.3321 29.5613 35.439Z" fill="#565656"/>
<path d="M2.12158 48.1164L6.95254 45.2984L7.74299 46.6534L2.912 49.4714L2.12158 48.1164Z" fill="#565656"/>
<path d="M6.43557 54.1995L7.55186 55.5069L11.8078 51.8729L10.8646 50.7675L9.75282 51.7166C9.16716 52.201 8.61262 52.7221 8.09274 53.2765L8.07655 53.2569C8.45058 52.5726 8.77428 51.8619 9.04522 51.1307L9.67819 49.3785L8.40024 47.8817L4.14372 51.5162L5.08754 52.621L6.23697 51.6396C6.88082 51.0901 7.49456 50.555 8.11133 49.9738L8.13322 49.9986C7.78005 50.725 7.46382 51.4689 7.18592 52.2274L6.43557 54.1995Z" fill="#565656"/>
<path d="M14.6659 55.6056C15.1106 55.9013 15.4878 56.2876 15.773 56.7393L16.7602 55.9361C16.4152 55.41 15.9672 54.959 15.4434 54.6102C13.8257 53.4464 11.9826 53.3786 10.8523 54.949C10.6362 55.2385 10.4829 55.5699 10.4022 55.9221C10.3214 56.2742 10.3151 56.6393 10.3834 56.9941C10.6231 57.9123 11.2128 58.7002 12.026 59.1892C12.6308 59.6091 13.2938 59.9378 13.9942 60.1649L15.7788 57.6842L13.8303 56.283L13.1274 57.2604L13.8285 57.7648L13.2999 58.4996C13.1188 58.4256 12.9485 58.3274 12.7938 58.2077C12.5922 58.0922 12.4171 57.9356 12.28 57.748C12.1429 57.5603 12.0468 57.346 11.9979 57.1187C11.9491 56.8915 11.9487 56.6566 11.9967 56.4292C12.0446 56.2019 12.1399 55.9871 12.2762 55.7989C12.9016 54.9292 13.8709 55.0335 14.6659 55.6056Z" fill="#565656"/>
<path d="M21.74 59.6469C21.8425 59.4329 21.8906 59.1968 21.8797 58.9598C21.8687 58.7227 21.7993 58.4921 21.6775 58.2885C21.2551 57.7346 20.6721 57.3245 20.008 57.1141C19.4002 56.8542 18.7746 56.6379 18.1361 56.4669L16.0063 61.5623L17.4395 62.1617L18.2432 60.2381L18.5038 60.3469C18.9866 60.549 19.1424 60.7575 19.044 61.446C18.9662 61.8902 18.9345 62.3414 18.949 62.7922L20.4204 63.4071C20.4041 63.1663 20.5449 62.3342 20.5894 61.7315C20.6282 61.5221 20.6215 61.307 20.5697 61.1005C20.5178 60.8941 20.422 60.7012 20.2888 60.5351L20.3016 60.5039C20.6 60.5235 20.8973 60.4521 21.1541 60.2991C21.411 60.146 21.6152 59.9186 21.74 59.6469ZM20.2623 59.1558C20.099 59.5461 19.6652 59.6352 19.0984 59.3979L18.6694 59.219L19.1627 58.0389C19.3563 58.0889 19.5452 58.1558 19.7272 58.2386C20.2178 58.4437 20.4256 58.7645 20.2623 59.1558Z" fill="#565656"/>
<path d="M27.1634 60.4472L27.4024 59.208L23.489 58.4532L22.4282 63.9472L26.4637 64.7264L26.7028 63.4872L24.2082 63.0056L24.3897 62.0682L26.6227 62.4993L26.8621 61.26L24.6287 60.8291L24.7911 59.9894L27.1634 60.4472Z" fill="#565656"/>
<path d="M30.5944 59.2726C29.9366 59.2851 29.2805 59.3453 28.6315 59.4526L28.7867 64.9366C29.3386 64.9966 29.8944 65.0141 30.4491 64.9888C31.4733 65.0235 32.4823 64.7332 33.3316 64.1596C33.667 63.8811 33.93 63.5255 34.0979 63.1231C34.2658 62.7206 34.3336 62.2836 34.2956 61.8492C34.3034 61.429 34.199 61.0144 33.9931 60.6481C33.7872 60.2817 33.4873 59.977 33.1242 59.7653C32.3489 59.3528 31.468 59.1813 30.5944 59.2726ZM30.6888 63.7786C30.567 63.7852 30.4449 63.7829 30.3235 63.7717L30.2307 60.5117C30.4107 60.4753 30.5938 60.4562 30.7774 60.4544C31.7895 60.4261 32.5903 60.8684 32.6222 61.9801C32.657 63.1995 31.8342 63.7624 30.6888 63.7786Z" fill="#565656"/>
<path d="M35.3559 58.8633L36.8909 58.5384L38.0496 64.0125L36.5146 64.3373L35.3559 58.8633Z" fill="#565656"/>
<path d="M42.0465 56.8102L38.3247 58.2386L40.3311 63.4642L44.1686 61.9913L43.7162 60.8125L41.3438 61.7239L41.0012 60.8321L43.1256 60.0162L42.6739 58.8375L40.5493 59.6527L40.2422 58.8547L42.4989 57.9884L42.0465 56.8102Z" fill="#565656"/>
<path d="M47.3217 58.0432L49.1891 59.0276L50.6216 58.078L47.5302 53.4132L46.3189 54.2158L47.126 55.4341C47.5359 56.074 47.9857 56.6875 48.4728 57.2707L48.4525 57.2846C47.8184 56.8303 47.1522 56.4227 46.4589 56.0653L44.7965 55.2245L43.1562 56.3119L46.2477 60.9766L47.459 60.174L46.624 58.9141C46.1561 58.2088 45.6998 57.5348 45.1973 56.8515L45.2251 56.8329C45.9029 57.2719 46.6026 57.6759 47.3217 58.0432Z" fill="#565656"/>
<path d="M54.4709 54.3816L51.3563 51.3891L52.4728 50.2276L51.5502 49.3418L48.2535 52.773L49.1761 53.6595L50.2688 52.5217L53.3836 55.5136L54.4709 54.3816Z" fill="#565656"/>
<path d="M55.5786 50.6324L56.4808 51.5948C57.0034 51.2496 57.4474 50.7979 57.7836 50.2694C58.746 48.7657 58.4176 47.6776 57.6273 47.1716C56.9139 46.7141 56.1953 46.8659 55.3151 47.5942C54.7252 48.0841 54.4489 48.3308 54.1971 48.1697C53.9944 48.0401 54.0117 47.7355 54.2625 47.3441C54.521 46.9466 54.857 46.605 55.2502 46.34L54.4078 45.3766C53.927 45.712 53.5222 46.1449 53.2197 46.6469C52.4362 47.8705 52.5728 49.0429 53.4257 49.5896C54.2445 50.113 55.0824 49.713 55.8212 49.0523C56.3493 48.5815 56.6208 48.4501 56.8235 48.5797C57.0615 48.732 57.0581 49.0453 56.776 49.4859C56.4653 49.9509 56.0566 50.3423 55.5786 50.6324Z" fill="#565656"/>
<path d="M1.15853 19.1562L1.1105 20.9249L2.26199 21.1815L2.28333 19.9667L2.28985 19.9513L5.953 21.64L6.58204 20.2756L1.68329 18.0177L1.15853 19.1562Z" fill="#565656"/>
<path d="M4.41917 13.3826C3.45798 14.6947 4.14702 16.0014 5.3318 16.8694C6.52335 17.7426 7.97042 17.9998 8.92695 16.6946C9.89285 15.3756 9.21067 14.0733 8.01899 13.2007C6.83376 12.3327 5.38037 12.0704 4.41917 13.3826ZM8.02595 16.0136C7.76601 16.3692 7.17769 16.2876 6.25354 15.6106C5.33003 14.9344 5.0816 14.4027 5.33635 14.0542C5.5911 13.7062 6.17309 13.7826 7.09724 14.4595C8.02076 15.1359 8.27615 15.6726 8.02595 16.0136Z" fill="#565656"/>
<path d="M8.74531 8.56194C7.54313 9.65736 7.95954 11.075 8.94909 12.1606C9.94446 13.2526 11.3116 13.7918 12.5078 12.7014C13.7163 11.6 13.3057 10.189 12.3104 9.09688C11.3208 8.01069 9.94787 7.46526 8.74531 8.56194ZM11.7597 11.856C11.4349 12.1525 10.8738 11.9562 10.1026 11.1096C9.33072 10.2631 9.19233 9.69278 9.51135 9.40147C9.83036 9.11079 10.3857 9.30129 11.1575 10.1479C11.9289 10.9945 12.0724 11.5706 11.7597 11.856Z" fill="#565656"/>
<path d="M26.0581 1.95948L24.9001 0.500314L22.9557 0.800252L23.8092 6.33119L25.2452 6.10942L25.0147 4.6161C24.8856 3.77881 24.753 2.97628 24.5827 2.14536L24.6158 2.14014C25.0479 2.82248 25.5141 3.48246 26.013 4.11757L27.2968 5.79271L28.9955 5.53099L28.1416 0L26.7055 0.221159L26.9285 1.66528C27.0323 2.4184 27.1839 3.16416 27.3824 3.89803L27.3575 3.90151C26.9721 3.2235 26.5378 2.57444 26.0581 1.95948Z" fill="#565656"/>
<path d="M33.6031 4.40935L33.9036 5.80019L35.6402 5.94437L34.2267 0.214822L32.093 0.0370498L29.8683 5.46434L31.5139 5.601L31.9823 4.27443L33.6031 4.40935ZM32.646 2.19801C32.7641 1.88359 32.8805 1.48522 32.998 1.17023L33.0148 1.17142C33.0872 1.50204 33.1694 1.91721 33.2424 2.23915L33.4583 3.24783L32.3003 3.15171L32.646 2.19801Z" fill="#565656"/>
<path d="M38.5772 6.82681L39.7481 2.67214L41.2982 3.10914L41.645 1.8788L37.0675 0.587985L36.7207 1.81773L38.2379 2.24641L37.067 6.4005L38.5772 6.82681Z" fill="#565656"/>
<path d="M45.0674 3.4275L43.6876 2.68054L42.28 5.27924C41.3628 6.9735 41.8005 8.13566 43.2098 8.89816C44.7061 9.70884 45.976 9.40539 46.8456 7.79919L48.2729 5.16342L46.8932 4.41589L45.4461 7.08813C45.0072 7.89874 44.4734 8.20448 43.8451 7.86409C43.2174 7.5242 43.2012 6.87389 43.6204 6.09972L45.0674 3.4275Z" fill="#565656"/>
<path d="M51.8497 7.93606C51.3577 7.49498 50.8352 7.0894 50.2857 6.72235L46.6337 10.8618L47.7976 11.8886L49.1763 10.3263L49.3876 10.5133C49.7802 10.8589 49.8602 11.1068 49.5463 11.7264C49.3298 12.1221 49.1548 12.539 49.024 12.9707L50.2191 14.0245C50.2811 13.7918 50.6817 13.0495 50.9175 12.4936C51.0213 12.3077 51.084 12.1017 51.1012 11.8894C51.1184 11.6773 51.0897 11.4639 51.017 11.2637L51.0391 11.2388C51.3151 11.353 51.6193 11.3808 51.9115 11.3185C52.2037 11.2561 52.4701 11.1066 52.6754 10.8896C52.8412 10.72 52.9624 10.5121 53.0281 10.2843C53.0939 10.0563 53.1023 9.81573 53.0523 9.584C52.8306 8.92396 52.4106 8.34855 51.8497 7.93606ZM51.4345 9.94931C51.1543 10.2672 50.716 10.2122 50.2551 9.80574L49.9064 9.49823L50.7524 8.53993C50.9198 8.64935 51.0771 8.77343 51.2226 8.91055C51.6209 9.26144 51.7148 9.63206 51.4345 9.94931Z" fill="#565656"/>
<path d="M50.6691 14.4605L51.6308 15.8039L52.9453 15.3013L53.892 16.6244L53.0269 17.7541L54.0413 19.1716L57.4936 14.383L56.2475 12.6418L50.6691 14.4605ZM55.313 14.944L54.6835 15.7622L54.0072 14.8172L54.958 14.4628C55.2748 14.3488 55.6535 14.1791 55.9701 14.0656L55.9795 14.0784C55.7744 14.3482 55.5109 14.6793 55.313 14.944Z" fill="#565656"/>
<path d="M59.5854 17.8819L54.4512 20.1076L56.0366 23.7643L57.2397 23.2425L56.2792 21.0261L60.2097 19.3215L59.5854 17.8819Z" fill="#565656"/>
<path d="M59.514 26.1214C59.2822 26.1647 59.077 26.2984 58.9437 26.4929C58.8103 26.6876 58.7598 26.9272 58.803 27.159C59.1292 28.9082 59.2933 30.6836 59.2932 32.463C59.3011 36.3939 58.495 40.2839 56.9255 43.8879C56.8314 44.1042 56.827 44.3491 56.9133 44.5685C56.9997 44.7881 57.1699 44.9643 57.3862 45.0584C57.6025 45.1525 57.8472 45.157 58.0668 45.0706C58.2863 44.9842 58.4625 44.814 58.5566 44.5977C60.2238 40.7698 61.0801 36.6382 61.072 32.463C61.0719 30.5741 60.8978 28.6894 60.5518 26.8324C60.5303 26.7176 60.4865 26.6082 60.4227 26.5103C60.359 26.4124 60.2765 26.328 60.1801 26.262C60.0839 26.1959 59.9753 26.1495 59.8611 26.1255C59.7468 26.1013 59.6289 26.0999 59.514 26.1214Z" fill="#565656"/>
<path d="M0.520306 26.8324C0.174224 28.6894 6.95491e-05 30.5741 4.42507e-05 32.463C-0.00679897 36.4658 0.780134 40.4303 2.31532 44.1271C2.36011 44.235 2.42571 44.3329 2.50836 44.4153C2.59101 44.4979 2.68911 44.5633 2.79705 44.608C2.90498 44.6525 3.02066 44.6754 3.13745 44.6753C3.25424 44.6753 3.36987 44.6521 3.47773 44.6074C3.58559 44.5626 3.68358 44.4969 3.76609 44.4143C3.8486 44.3316 3.91402 44.2336 3.95863 44.1257C4.00323 44.0177 4.02613 43.902 4.02603 43.7852C4.02592 43.6684 4.00282 43.5528 3.95803 43.4449C2.513 39.9642 1.77232 36.2317 1.77884 32.463C1.77885 30.6836 1.94294 28.9082 2.269 27.159C2.29044 27.0442 2.28906 26.9263 2.26492 26.812C2.2408 26.6977 2.19439 26.5893 2.12836 26.4929C2.06233 26.3966 1.97797 26.3142 1.88011 26.2505C1.78223 26.1867 1.67276 26.1428 1.55793 26.1214C1.44312 26.0999 1.3252 26.1013 1.21091 26.1255C1.09663 26.1496 0.988213 26.1959 0.891851 26.262C0.795502 26.328 0.713105 26.4124 0.649353 26.5103C0.585601 26.6082 0.541747 26.7176 0.520306 26.8324Z" fill="#565656"/>
<path d="M17.1742 10.7038C17.3268 10.7036 17.4734 10.6446 17.5836 10.5391C17.6937 10.4338 17.7591 10.2898 17.7661 10.1375L18.1138 2.45024C18.1208 2.29315 18.0652 2.13968 17.9591 2.02359C17.9066 1.96612 17.8432 1.91955 17.7727 1.88655C17.7022 1.85355 17.6258 1.83477 17.548 1.83128C17.4702 1.82777 17.3926 1.83964 17.3193 1.86616C17.2461 1.8927 17.1789 1.93341 17.1214 1.98592C17.0054 2.09201 16.9362 2.23988 16.9291 2.39697L16.5814 10.0843C16.5743 10.2412 16.6299 10.3947 16.7359 10.5108C16.8419 10.6268 16.9898 10.696 17.1468 10.7032C17.156 10.7038 17.165 10.7038 17.1742 10.7038Z" fill="#565656"/>
<path d="M15.0565 3.73105C14.8417 3.63557 14.6088 3.58739 14.3737 3.58979C14.1387 3.59218 13.9068 3.64509 13.6941 3.74494C13.2782 3.97229 12.9689 4.35485 12.8339 4.80921C12.6988 5.26357 12.7489 5.75291 12.9732 6.17052C13.1751 6.59922 13.5251 6.94055 13.9587 7.13172C14.1717 7.22441 14.4014 7.27248 14.6338 7.27299C14.8713 7.27375 15.106 7.22087 15.3202 7.1184C15.531 7.01411 15.7167 6.86571 15.8649 6.68327C16.0133 6.50083 16.1206 6.28864 16.1795 6.06108C16.2956 5.60266 16.2467 5.11802 16.0414 4.69204C15.8361 4.26606 15.4873 3.92587 15.0565 3.73105ZM15.0351 5.75014C15.023 5.81464 14.9959 5.87539 14.9559 5.9275C14.9161 5.97961 14.8645 6.02161 14.8054 6.05013C14.7463 6.07864 14.6813 6.09285 14.6157 6.09164C14.55 6.09043 14.4856 6.0738 14.4277 6.04313C14.2573 5.96376 14.1206 5.82677 14.0414 5.65634C13.9573 5.52064 13.9278 5.35806 13.9589 5.20145C13.99 5.04486 14.0795 4.9059 14.2091 4.81268C14.2624 4.78739 14.3208 4.77452 14.3799 4.77505C14.4512 4.77617 14.5216 4.79153 14.5868 4.82021C14.7557 4.90172 14.8919 5.03804 14.9734 5.20692C15.0547 5.37581 15.0765 5.56729 15.0351 5.75014Z" fill="#565656"/>
<path d="M20.686 4.80457C20.4719 4.70667 20.2389 4.65715 20.0035 4.65954C19.7681 4.66191 19.5361 4.71614 19.324 4.81836C19.112 4.92058 18.925 5.06827 18.7765 5.25094C18.628 5.4336 18.5216 5.64674 18.4648 5.8752C18.3445 6.33323 18.3936 6.81926 18.6028 7.24402C18.7497 7.56519 18.9836 7.83866 19.278 8.03346C19.5724 8.22838 19.9156 8.33679 20.2685 8.34653C20.5045 8.34716 20.7376 8.29441 20.9503 8.19195C21.3664 7.96452 21.6757 7.58188 21.8107 7.1274C21.9458 6.6729 21.8955 6.18344 21.6712 5.76577C21.4689 5.33756 21.1191 4.99594 20.686 4.80457ZM20.4356 7.1236C20.2819 7.16762 20.1172 7.15129 19.9751 7.07801C19.8331 7.00474 19.7244 6.88001 19.6712 6.7293C19.5871 6.56127 19.5651 6.36885 19.6092 6.18617C19.6243 6.12277 19.6525 6.06326 19.6921 6.01156C19.7316 5.95986 19.7817 5.91715 19.8392 5.88623C19.8923 5.86094 19.9505 5.84808 20.0094 5.8486C20.0806 5.84973 20.1511 5.86508 20.2164 5.89377C20.3869 5.97287 20.5239 6.10993 20.6029 6.28056C20.687 6.41611 20.7166 6.57858 20.6855 6.73511C20.6545 6.89163 20.5651 7.03049 20.4356 7.1236Z" fill="#565656"/>
</svg>
