<svg width="37" height="39" viewBox="0 0 37 39" fill="none" xmlns="http://www.w3.org/2000/svg">
<path d="M20.7489 0.5V14.6133L32.5477 7.80664L32.9843 7.55469L33.2333 7.99316L35.2841 11.6133L35.5292 12.0449L35.0995 12.293L23.2997 19.0996L35.0995 25.9072L35.5292 26.1553L35.2841 26.5869L33.2333 30.2061L32.9843 30.6445L32.5477 30.3936L20.7489 23.5859V37.7002H15.5253V23.585L3.72546 30.3936L3.28894 30.6445L3.04089 30.2061L0.990112 26.5869L0.744995 26.1553L1.17468 25.9072L12.9725 19.0996L1.17468 12.293L0.744995 12.0449L0.990112 11.6133L3.04089 7.99316L3.28894 7.55469L3.72546 7.80664L15.5253 14.6143V0.5H20.7489Z" fill="#280A03" stroke="#280A03"/>
</svg>
