<svg width="49" height="49" viewBox="0 0 49 49" fill="none" xmlns="http://www.w3.org/2000/svg">
<path d="M24.4825 4.25V2M8.74475 20C9.37537 16.2795 11.3017 12.9026 14.1823 10.4676C17.0629 8.03259 20.7118 6.69673 24.4825 6.69673C28.2532 6.69673 31.9021 8.03259 34.7827 10.4676C37.6633 12.9026 39.5896 16.2795 40.2203 20M6.4965 20H42.4685M2 29H28.979C30.1715 29 31.3153 29.4741 32.1585 30.318C33.0018 31.1619 33.4755 32.3065 33.4755 33.5C33.4755 34.6935 33.0018 35.8381 32.1585 36.682C31.3153 37.5259 30.1715 38 28.979 38H24.4825M32.1266 36.65L39.321 30.35C40.1856 29.5146 41.3463 29.0571 42.548 29.0782C43.7496 29.0993 44.8937 29.5972 45.7285 30.4625C46.5633 31.3278 47.0204 32.4895 46.9993 33.6921C46.9782 34.8946 46.4806 36.0396 45.6161 36.875L37.5224 44.3C35.9486 46.1 33.7003 47 31.2273 47H22.2343C19.7612 47 17.5129 46.1 15.9392 44.3L8.74475 38M8.74475 29V44.75H2" stroke="#565656" stroke-width="3" stroke-linecap="round" stroke-linejoin="round"/>
</svg>
