<svg width="43" height="45" viewBox="0 0 43 45" fill="none" xmlns="http://www.w3.org/2000/svg">
<path d="M12.5021 18.3197H7.47738C6.76786 18.3197 6.25332 18.7296 6.25332 19.2944V28.4594C6.25332 29.0331 6.80392 29.4337 7.59254 29.4337C8.36856 29.4337 8.93176 29.0238 8.93176 28.4594V24.9853H10.7313C11.3739 24.9853 11.7103 24.4312 11.7103 23.8839C11.7103 23.2292 11.2987 22.7541 10.7313 22.7541H8.93176V20.7209H12.5021C13.0786 20.7209 13.4815 20.2214 13.4815 19.5062C13.4815 18.8076 13.0786 18.3197 12.5021 18.3197Z" fill="#565656"/>
<path d="M19.5227 24.6966C20.305 24.3303 21.2413 23.5073 21.2413 21.6668C21.2413 19.5083 19.8864 18.3197 17.426 18.3197H14.575C14.0097 18.3197 13.5672 18.7413 13.5672 19.28V28.4594C13.5672 29.0238 14.1304 29.4337 14.9061 29.4337C15.6944 29.4337 16.245 29.0331 16.245 28.4594V25.169H16.805L18.7351 28.848C18.9448 29.259 19.3218 29.5045 19.7439 29.5045C20.5213 29.5045 21.3134 28.8202 21.3134 28.1487C21.3134 28.0711 21.2998 27.8806 21.1797 27.711L19.5227 24.6966ZM18.5629 21.836C18.5629 22.6287 18.244 22.9377 17.426 22.9377H16.2453V20.7209H17.426C18.244 20.7209 18.5629 21.0333 18.5629 21.836Z" fill="#565656"/>
<path d="M28.1226 20.7209C28.6984 20.7209 29.1163 20.21 29.1163 19.5062C29.1163 18.8186 28.6984 18.3197 28.1226 18.3197H22.9971C22.2879 18.3197 21.773 18.7296 21.773 19.2944V28.4594C21.773 29.0242 22.2879 29.4337 22.9971 29.4337H28.1226C28.6984 29.4337 29.1163 28.9349 29.1163 28.2476C29.1163 27.5438 28.6984 27.0329 28.1226 27.0329H24.4515V24.9857H26.2366C26.8821 24.9857 27.2304 24.4178 27.2304 23.8839C27.2304 23.2399 26.803 22.7541 26.2366 22.7541H24.4515V20.7209H28.1226Z" fill="#565656"/>
<path d="M35.7533 20.7209C36.3291 20.7209 36.747 20.21 36.747 19.5062C36.747 18.8186 36.3291 18.3197 35.7533 18.3197H30.6274C29.9183 18.3197 29.4037 18.7296 29.4037 19.2944V28.4594C29.4037 29.0242 29.9183 29.4337 30.6274 29.4337H35.7533C36.3291 29.4337 36.747 28.9349 36.747 28.2476C36.747 27.5438 36.3291 27.0329 35.7533 27.0329H32.0818V24.9857H33.8673C34.5124 24.9857 34.8607 24.4178 34.8607 23.8839C34.8607 23.2399 34.4337 22.7541 33.8673 22.7541H32.0818V20.7209H35.7533Z" fill="#565656"/>
<path d="M38.0565 0H4.94315C2.21745 0 0 2.17495 0 4.84875V37.3271C0 40.0005 2.21745 42.1758 4.94315 42.1758H6.49344C7.46723 43.8602 9.31084 45 11.4222 45C13.5333 45 15.3769 43.8602 16.3507 42.1758H26.649C27.6228 43.8602 29.4667 45 31.5781 45C33.6892 45 35.5328 43.8602 36.5066 42.1758H38.0565C40.7822 42.1758 43 40.0005 43 37.3271V4.84875C43 2.17495 40.7822 0 38.0565 0ZM16.9415 2.63672H25.9146V9.08501C25.9146 10.3045 24.903 11.2967 23.6597 11.2967H19.1964C17.9531 11.2967 16.9415 10.3045 16.9415 9.08501V2.63672ZM11.4222 42.3633C9.78164 42.3633 8.44732 41.0542 8.44732 39.4454C8.44732 37.8362 9.78164 36.5275 11.4222 36.5275C13.0625 36.5275 14.3968 37.8362 14.3968 39.4454C14.3968 41.0542 13.0625 42.3633 11.4222 42.3633ZM31.5781 42.3633C29.9375 42.3633 28.6028 41.0542 28.6028 39.4454C28.6028 37.8362 29.9375 36.5275 31.5781 36.5275C33.2184 36.5275 34.553 37.8362 34.553 39.4454C34.553 41.0542 33.2184 42.3633 31.5781 42.3633ZM40.3118 37.3271C40.3118 38.5469 39.3002 39.5391 38.0565 39.5391H37.2388C37.2392 39.5079 37.2413 39.4766 37.2413 39.4454C37.2413 36.3823 34.7007 33.8908 31.5781 33.8908C28.4551 33.8908 25.9146 36.3826 25.9146 39.4454C25.9146 39.4766 25.9167 39.5079 25.9171 39.5391H17.0829C17.0833 39.5079 17.085 39.4766 17.085 39.4454C17.085 36.3823 14.5449 33.8908 11.4222 33.8908C8.29925 33.8908 5.75907 36.3826 5.75907 39.4454C5.75907 39.4766 5.76082 39.5079 5.76152 39.5391H4.94315C3.69984 39.5391 2.68824 38.5469 2.68824 37.3271V4.84875C2.68824 3.62892 3.69984 2.63672 4.94315 2.63672H14.2533V9.08501C14.2533 11.7585 16.4707 13.9334 19.1964 13.9334H23.6597C26.3854 13.9334 28.6028 11.7585 28.6028 9.08501V2.63672H38.0565C39.3002 2.63672 40.3118 3.62892 40.3118 4.84875V37.3271Z" fill="#565656"/>
</svg>
