<svg width="57" height="67" viewBox="0 0 57 67" fill="none" xmlns="http://www.w3.org/2000/svg">
<path d="M28.8142 8.5721C17.7211 8.5721 8.69487 17.5984 8.69487 28.6912C8.69487 32.6705 9.87485 36.5604 12.0856 39.8689C14.2963 43.1774 17.4385 45.7562 21.1148 47.279C24.7911 48.8017 28.8365 49.2002 32.7391 48.4239C36.6418 47.6476 40.2268 45.7314 43.0405 42.9176C45.8542 40.104 47.7704 36.519 48.5467 32.6164C49.323 28.7136 48.9246 24.6683 47.4018 20.992C45.879 17.3157 43.3003 14.1735 39.9917 11.9629C36.6831 9.75208 32.7933 8.5721 28.8142 8.5721ZM28.8142 47.4879C25.0965 47.4879 21.4624 46.3855 18.3712 44.32C15.2802 42.2547 12.8711 39.3191 11.4483 35.8844C10.0257 32.4498 9.65348 28.6704 10.3787 25.0243C11.1039 21.3781 12.8942 18.0289 15.5229 15.4001C18.1517 12.7714 21.5009 10.9812 25.1471 10.2559C28.7933 9.53071 32.5726 9.90296 36.0073 11.3256C39.4419 12.7483 42.3775 15.1575 44.4428 18.2485C46.5083 21.3396 47.6106 24.9736 47.6106 28.6912C47.6049 33.6746 45.6227 38.4524 42.099 41.9762C38.5751 45.4999 33.7975 47.4822 28.8142 47.4879Z" fill="#565656"/>
<path d="M29.2689 15.7106C29.1426 15.5902 28.9748 15.523 28.8002 15.523C28.6257 15.523 28.4577 15.5902 28.3314 15.7106C28.1396 15.9025 24.9623 19.1448 23.1323 23.7546C20.0895 20.8294 14.762 20.2911 14.5237 20.2679C14.3799 20.2541 14.2356 20.2878 14.1127 20.3638C13.9898 20.4397 13.8951 20.5538 13.8431 20.6885C13.7379 20.9655 11.2751 27.5275 14.5578 33.5187C16.8503 37.7031 21.3441 40.5046 27.9169 41.8426C27.9601 41.8518 28.0042 41.8565 28.0484 41.8566C28.1452 41.8542 28.2403 41.8305 28.3268 41.7869C28.4746 41.827 28.6268 41.8488 28.7801 41.852H28.8188C28.979 41.8492 29.1381 41.8253 29.2921 41.7808C29.3807 41.8283 29.4793 41.8544 29.5798 41.8566C29.6245 41.8565 29.6691 41.8518 29.7128 41.8426C36.2841 40.5046 40.7795 37.7031 43.072 33.5187C46.353 27.5275 43.8918 20.9655 43.7852 20.6885C43.7325 20.5546 43.638 20.441 43.5156 20.3653C43.3931 20.2894 43.2495 20.2552 43.106 20.2679C42.8663 20.2911 37.514 20.8324 34.4758 23.7762C32.6458 19.1588 29.4607 15.9071 29.2689 15.7106ZM15.7242 32.9015C13.2197 28.3428 14.4402 23.2379 14.9166 21.6615C16.3753 21.8813 20.5381 22.7042 22.6388 25.1561C22.0743 26.8961 21.8127 28.7202 21.8654 30.5487C21.8808 30.957 21.9195 31.3592 21.9706 31.7583C20.3324 28.9739 18.9726 26.4339 18.9478 26.3874C18.8659 26.2326 18.7257 26.1167 18.558 26.0652C18.3905 26.0137 18.2094 26.0309 18.0546 26.1128C17.8997 26.1949 17.7837 26.3351 17.7322 26.5026C17.6807 26.6701 17.6979 26.8514 17.78 27.0062C17.9578 27.3419 21.8732 34.6773 24.5138 38.0883C25.0179 38.7904 25.5727 39.4547 26.1736 40.0761C21.0996 38.6993 17.5866 36.2923 15.7242 32.9015ZM29.4607 40.1317V20.95C29.4525 20.7802 29.3793 20.62 29.2561 20.5027C29.1329 20.3853 28.9695 20.32 28.7994 20.32C28.6293 20.32 28.4658 20.3853 28.3426 20.5027C28.2196 20.62 28.1463 20.7802 28.1382 20.95V40.1317C27.4444 39.5116 26.799 38.8393 26.2076 38.1208C26.1811 38.0512 26.1435 37.9864 26.0962 37.929C25.9415 37.7572 25.7868 37.5639 25.6213 37.3536C24.1022 35.2419 23.2839 32.9494 23.1895 30.5006C22.9514 24.3378 27.3337 18.8199 28.8002 17.1539C30.2667 18.8199 34.6491 24.3378 34.4108 30.5006C34.3102 33.1073 33.3899 35.5375 31.6774 37.7588C31.6279 37.816 31.5784 37.8763 31.532 37.929C31.5181 37.946 31.5135 37.9661 31.5011 37.9831C30.8813 38.7544 30.1989 39.473 29.4607 40.1317ZM34.9894 25.1592C37.0885 22.7042 41.2528 21.8813 42.7116 21.6615C43.188 23.2379 44.4132 28.3428 41.9056 32.9015C40.0385 36.3047 36.5115 38.7102 31.4145 40.087C31.8761 39.6096 32.3109 39.1072 32.717 38.5817C35.3467 35.4493 39.6595 27.3604 39.8467 27.0078C39.8874 26.9311 39.9125 26.8472 39.9206 26.7607C39.9288 26.6744 39.9199 26.5871 39.8944 26.5042C39.8689 26.4212 39.8273 26.3441 39.772 26.2773C39.7167 26.2104 39.6488 26.1551 39.5722 26.1144C39.4955 26.0738 39.4115 26.0487 39.325 26.0405C39.2387 26.0323 39.1516 26.0411 39.0686 26.0666C38.9857 26.0922 38.9084 26.1338 38.8417 26.189C38.7747 26.2443 38.7194 26.3123 38.6788 26.389C38.6541 26.4354 37.2741 29.0187 35.6205 31.8203C35.6762 31.401 35.7165 30.9787 35.7335 30.5517C35.7833 28.7289 35.5216 26.9111 34.96 25.1763C34.96 25.1763 34.9832 25.1653 34.9894 25.1592Z" fill="#565656"/>
<path d="M53.0558 31.0866L52.8531 30.9721L53.0744 30.9024C55.8092 30.0393 56.8147 27.5798 56.5998 25.5254C56.3848 23.4712 54.8873 21.2807 52.0333 20.9992L51.8012 20.9759L51.976 20.8212C54.1231 18.9217 54.0426 16.2641 53.0093 14.479C51.976 12.6938 49.7175 11.2939 46.9966 12.2019L46.7768 12.2761L46.8727 12.0642C48.0623 9.45454 46.9084 7.05992 45.2362 5.8456C43.5639 4.63126 40.931 4.26465 38.8164 6.20758L38.6463 6.36226V6.13022C38.671 3.2638 36.643 1.54672 34.6243 1.11667C32.6056 0.686631 30.0515 1.42606 28.9084 4.05582L28.8156 4.26929L28.7228 4.05582C27.5797 1.42606 25.0272 0.680453 22.9993 1.11667C20.9712 1.5529 18.9494 3.2638 18.9773 6.13022V6.36226L18.8055 6.20758C16.697 4.26465 14.0642 4.62817 12.392 5.84249C10.7198 7.05682 9.56583 9.4515 10.7554 12.0611L10.8513 12.2731L10.6316 12.1988C7.91222 11.2891 5.65219 12.686 4.61874 14.4758C3.58542 16.2656 3.50503 18.9231 5.65219 20.8182L5.82697 20.9729L5.5949 20.9961C2.74086 21.2699 1.24497 23.4712 1.02841 25.5224C0.811844 27.5736 1.81882 30.0362 4.55379 30.8994L4.77503 30.969L4.57399 31.0835C2.07728 32.4958 1.60541 35.1054 2.24268 37.0762C2.88012 39.047 4.8013 40.88 7.65693 40.5537L7.88741 40.5275L7.74973 40.7146C6.0482 43.0194 6.67614 45.6013 8.05914 47.1374C8.93591 48.1167 10.1528 48.7251 11.4623 48.8389L3.85312 59.9536C3.77405 60.0701 3.73419 60.2089 3.73947 60.3496C3.74461 60.4903 3.79464 60.6257 3.88216 60.7362C3.96955 60.8466 4.08993 60.9262 4.22577 60.9635C4.3616 61.0008 4.50574 60.9938 4.63735 60.9436L11.8862 58.1591L14.2855 65.5472C14.3245 65.6658 14.3962 65.771 14.4922 65.8508C14.5882 65.9307 14.7047 65.9819 14.8284 65.9988C14.8573 66.0004 14.8862 66.0004 14.915 65.9988C15.025 65.9991 15.1331 65.9719 15.2298 65.9197C15.3265 65.8676 15.4087 65.7922 15.4689 65.7004L23.9444 52.7543C24.6607 55.2556 26.8588 56.3833 28.814 56.3833C30.7694 56.3833 32.9769 55.251 33.6868 52.7387L42.1593 65.7004C42.2197 65.792 42.302 65.8671 42.3986 65.9192C42.4952 65.9714 42.6033 65.9987 42.713 65.9988C42.742 66.0004 42.7709 66.0004 42.7998 65.9988C42.9236 65.9823 43.0403 65.9312 43.1362 65.8512C43.2323 65.7714 43.3039 65.6659 43.3427 65.5472L45.742 58.1591L52.9908 60.9436C53.1224 60.9938 53.2666 61.0008 53.4024 60.9635C53.5382 60.9262 53.6586 60.8466 53.746 60.7362C53.8335 60.6257 53.8834 60.4903 53.8887 60.3496C53.8939 60.2089 53.8541 60.0701 53.7751 59.9536L46.1797 48.8343C47.4893 48.721 48.7065 48.1124 49.5829 47.1328C50.9659 45.5966 51.594 43.0148 49.8923 40.7099L49.7546 40.5227L49.9851 40.5491C52.8391 40.8754 54.7543 39.0362 55.3994 37.0716C56.0445 35.107 55.5509 32.4989 53.0558 31.0866ZM15.1178 63.8208L12.9289 57.0809C12.9012 56.9954 12.8564 56.9165 12.7973 56.8489C12.738 56.7814 12.6657 56.7265 12.5846 56.688C12.5036 56.6493 12.4154 56.6275 12.3256 56.6241C12.2359 56.6206 12.1464 56.6356 12.0625 56.6679L6.14404 58.9465L13.1778 48.6517C13.6075 48.5247 14.02 48.3455 14.4061 48.118L14.6072 48.0006L14.5562 48.2264C13.9374 51.0263 15.5633 53.1285 17.4504 53.9686C18.0909 54.2566 18.7836 54.4101 19.4859 54.4197C20.188 54.4292 20.8847 54.2947 21.5327 54.0243L15.1178 63.8208ZM51.4856 58.9465L45.5656 56.6679C45.4818 56.6358 45.3923 56.621 45.3025 56.6246C45.2129 56.6282 45.1249 56.6499 45.0438 56.6885C44.9628 56.7272 44.8904 56.7819 44.8313 56.8494C44.772 56.9167 44.7271 56.9955 44.6993 57.0809L42.5104 63.8208L36.1139 54.0351C36.7601 54.3015 37.4538 54.4332 38.1526 54.4221C38.8513 54.4109 39.5405 54.2571 40.1777 53.97C42.0649 53.1301 43.6922 51.031 43.072 48.2279L43.0209 48.0021L43.222 48.1196C43.6082 48.3481 44.0212 48.5274 44.4518 48.6533L51.4856 58.9465ZM54.1262 36.671C53.69 38.0183 52.3766 39.5002 50.1274 39.245L48.3856 39.0455C48.2574 39.0309 48.128 39.0543 48.0128 39.1124C47.8977 39.1705 47.8022 39.261 47.7378 39.3727C47.6733 39.4844 47.643 39.6125 47.6504 39.7412C47.6578 39.8699 47.7025 39.9938 47.7792 40.0974L48.8219 41.5067C50.1693 43.3272 49.5412 45.2037 48.5929 46.2556C47.8287 47.1064 46.5076 47.8026 45.0009 47.4358H44.967C44.5896 47.3372 44.2282 47.1857 43.8934 46.9857L42.3821 46.0963C42.2711 46.0307 42.1433 45.999 42.0146 46.0051C41.8858 46.0111 41.7617 46.0548 41.6574 46.1306C41.5531 46.2064 41.4733 46.3111 41.4279 46.4317C41.3823 46.5524 41.3731 46.6836 41.4013 46.8094L41.7803 48.5064C42.2707 50.72 40.9342 52.1771 39.6393 52.7543C38.3447 53.3312 36.3676 53.3483 35.0512 51.5027L34.0333 50.075C33.9587 49.9697 33.855 49.8886 33.7348 49.8417C33.6147 49.7947 33.4834 49.784 33.3572 49.8108C33.231 49.8376 33.1155 49.9009 33.0248 49.9926C32.9341 50.0844 32.8722 50.2007 32.8469 50.3271L32.4973 52.0457C32.0456 54.267 30.2311 55.0544 28.814 55.0544C27.3971 55.0544 25.5826 54.267 25.1309 52.0457L24.7813 50.3287C24.7556 50.2022 24.6937 50.0861 24.603 49.9943C24.5123 49.9025 24.3969 49.8391 24.2707 49.8119C24.2255 49.8027 24.1794 49.798 24.1331 49.798C24.0278 49.7982 23.9241 49.8234 23.8305 49.8716C23.7369 49.9196 23.6561 49.9895 23.5947 50.075L22.5769 51.5027C21.2605 53.3483 19.2819 53.3297 17.9888 52.7543C16.6956 52.1787 15.3559 50.7262 15.8479 48.5064L16.2284 46.8047C16.2561 46.6789 16.2465 46.5477 16.2007 46.4272C16.155 46.3067 16.075 46.2023 15.9708 46.1265C15.8665 46.0507 15.7424 46.0072 15.6137 46.001C15.4849 45.9948 15.3572 46.0263 15.2461 46.0917L13.7348 46.9811C13.3974 47.1829 13.0326 47.335 12.6519 47.4328H12.6271C11.119 47.8026 9.79631 47.1033 9.03055 46.2526C8.08238 45.2006 7.4543 43.3242 8.80166 41.5035L9.84581 40.0942C9.9225 39.9906 9.96738 39.8669 9.97477 39.7381C9.98217 39.6094 9.95167 39.4813 9.88739 39.3697C9.82297 39.2579 9.72727 39.1674 9.61216 39.1092C9.49719 39.0511 9.36756 39.0279 9.23938 39.0424L7.49602 39.2419C5.2546 39.4956 3.93813 38.0168 3.49724 36.6678C3.05635 35.319 3.24828 33.3528 5.22054 32.2359L6.74729 31.3728C6.85923 31.3091 6.95018 31.2142 7.00906 31.0998C7.06793 30.9852 7.09209 30.856 7.07862 30.7279C7.06516 30.5999 7.0146 30.4786 6.93329 30.3788C6.85184 30.279 6.7432 30.2052 6.62044 30.1661L4.95297 29.634C2.78719 28.9534 2.19635 27.0662 2.34485 25.6569C2.49335 24.2476 3.46635 22.5259 5.72176 22.3094L7.46671 22.1469C7.59475 22.1342 7.71646 22.0845 7.81665 22.0038C7.91697 21.923 7.99156 21.8148 8.03129 21.6924C8.07102 21.5699 8.07419 21.4386 8.0404 21.3144C8.0066 21.1902 7.9373 21.0785 7.84107 20.9929L6.52764 19.8312C4.82612 18.3307 5.05501 16.3646 5.76347 15.1379C6.47193 13.9112 8.06073 12.7355 10.2093 13.4533L11.8754 14.0102C11.9976 14.0513 12.1291 14.0556 12.2538 14.0229C12.3784 13.99 12.4908 13.9215 12.577 13.8256C12.6632 13.7297 12.7194 13.6107 12.7388 13.4833C12.7581 13.3558 12.7397 13.2255 12.686 13.1084L11.9527 11.5119C11.0138 9.44992 12.0177 7.74523 13.164 6.91296C14.3102 6.08072 16.2407 5.65068 17.9115 7.1821L19.2047 8.3671C19.2995 8.45435 19.4179 8.5119 19.5451 8.53276C19.6723 8.55348 19.8028 8.53672 19.9206 8.48418C20.0383 8.43178 20.1381 8.34598 20.2077 8.23747C20.2774 8.12896 20.3137 8.0025 20.3122 7.87354L20.306 6.12094C20.2859 3.85471 21.8963 2.7069 23.2823 2.40835C24.6683 2.1098 26.6067 2.5089 27.5101 4.5864L28.2092 6.19365C28.2604 6.31203 28.345 6.41285 28.4527 6.4837C28.5606 6.55453 28.6866 6.59227 28.8156 6.59227C28.9446 6.59227 29.0708 6.55453 29.1785 6.4837C29.2862 6.41285 29.3709 6.31203 29.422 6.19365L30.1212 4.5864C31.0247 2.5089 32.9629 2.11134 34.3489 2.40835C35.735 2.70536 37.3438 3.85471 37.3222 6.12094L37.3066 7.87354C37.3053 8.0025 37.3416 8.12896 37.4111 8.23747C37.4807 8.34598 37.5806 8.43178 37.6984 8.48418C37.8161 8.53672 37.9465 8.55348 38.0738 8.53276C38.201 8.5119 38.3193 8.45435 38.4142 8.3671L39.7075 7.1821C41.3781 5.65222 43.3086 6.08072 44.455 6.91296C45.6011 7.74523 46.6036 9.44992 45.6755 11.5119L44.9484 13.1068C44.8944 13.2242 44.8759 13.3547 44.8953 13.4824C44.9147 13.61 44.9711 13.7292 45.0576 13.8252C45.1439 13.9211 45.2566 13.9896 45.3815 14.0223C45.5065 14.0549 45.6382 14.0501 45.7605 14.0087L47.4234 13.4533C49.5706 12.7355 51.1623 13.9174 51.8693 15.1379C52.5762 16.3584 52.7974 18.3307 51.1052 19.8312L49.7917 20.9929C49.6956 21.0781 49.6263 21.1895 49.5924 21.3133C49.5583 21.4371 49.5611 21.5682 49.6003 21.6906C49.6395 21.8128 49.7134 21.9211 49.8131 22.0021C49.9126 22.0832 50.0338 22.1335 50.1615 22.1469L51.908 22.3156C54.1634 22.5321 55.1364 24.2554 55.2849 25.6631C55.4334 27.0708 54.8394 28.9596 52.6784 29.6402L51.0061 30.1677C50.8829 30.2061 50.7736 30.2798 50.6918 30.3796C50.61 30.4794 50.5592 30.6009 50.5457 30.7292C50.5323 30.8577 50.5565 30.987 50.6158 31.1018C50.6752 31.2163 50.7667 31.3111 50.8793 31.3743L52.4045 32.2375C54.3753 33.3544 54.564 35.3236 54.1262 36.6694V36.671Z" fill="#565656"/>
<path d="M28.8142 8.5721C17.7211 8.5721 8.69487 17.5984 8.69487 28.6912C8.69487 32.6705 9.87485 36.5604 12.0856 39.8689C14.2963 43.1774 17.4385 45.7562 21.1148 47.279C24.7911 48.8017 28.8365 49.2002 32.7391 48.4239C36.6418 47.6476 40.2268 45.7314 43.0405 42.9176C45.8542 40.104 47.7704 36.519 48.5467 32.6164C49.323 28.7136 48.9246 24.6683 47.4018 20.992C45.879 17.3157 43.3003 14.1735 39.9917 11.9629C36.6831 9.75208 32.7933 8.5721 28.8142 8.5721ZM28.8142 47.4879C25.0965 47.4879 21.4624 46.3855 18.3712 44.32C15.2802 42.2547 12.8711 39.3191 11.4483 35.8844C10.0257 32.4498 9.65348 28.6704 10.3787 25.0243C11.1039 21.3781 12.8942 18.0289 15.5229 15.4001C18.1517 12.7714 21.5009 10.9812 25.1471 10.2559C28.7933 9.53071 32.5726 9.90296 36.0073 11.3256C39.4419 12.7483 42.3775 15.1575 44.4428 18.2485C46.5083 21.3396 47.6106 24.9736 47.6106 28.6912C47.6049 33.6746 45.6227 38.4524 42.099 41.9762C38.5751 45.4999 33.7975 47.4822 28.8142 47.4879Z" stroke="#565656" stroke-width="0.5"/>
<path d="M29.2689 15.7106C29.1426 15.5902 28.9748 15.523 28.8002 15.523C28.6257 15.523 28.4577 15.5902 28.3314 15.7106C28.1396 15.9025 24.9623 19.1448 23.1323 23.7546C20.0895 20.8294 14.762 20.2911 14.5237 20.2679C14.3799 20.2541 14.2356 20.2878 14.1127 20.3638C13.9898 20.4397 13.8951 20.5538 13.8431 20.6885C13.7379 20.9655 11.2751 27.5275 14.5578 33.5187C16.8503 37.7031 21.3441 40.5046 27.9169 41.8426C27.9601 41.8518 28.0042 41.8565 28.0484 41.8566C28.1452 41.8542 28.2403 41.8305 28.3268 41.7869C28.4746 41.827 28.6268 41.8488 28.7801 41.852H28.8188C28.979 41.8492 29.1381 41.8253 29.2921 41.7808C29.3807 41.8283 29.4793 41.8544 29.5798 41.8566C29.6245 41.8565 29.6691 41.8518 29.7128 41.8426C36.2841 40.5046 40.7795 37.7031 43.072 33.5187C46.353 27.5275 43.8918 20.9655 43.7852 20.6885C43.7325 20.5546 43.638 20.441 43.5156 20.3653C43.3931 20.2894 43.2495 20.2552 43.106 20.2679C42.8663 20.2911 37.514 20.8324 34.4758 23.7762C32.6458 19.1588 29.4607 15.9071 29.2689 15.7106ZM15.7242 32.9015C13.2197 28.3428 14.4402 23.2379 14.9166 21.6615C16.3753 21.8813 20.5381 22.7042 22.6388 25.1561C22.0743 26.8961 21.8127 28.7202 21.8654 30.5487C21.8808 30.957 21.9195 31.3592 21.9706 31.7583C20.3324 28.9739 18.9726 26.4339 18.9478 26.3874C18.8659 26.2326 18.7257 26.1167 18.558 26.0652C18.3905 26.0137 18.2094 26.0309 18.0546 26.1128C17.8997 26.1949 17.7837 26.3351 17.7322 26.5026C17.6807 26.6701 17.6979 26.8514 17.78 27.0062C17.9578 27.3419 21.8732 34.6773 24.5138 38.0883C25.0179 38.7904 25.5727 39.4547 26.1736 40.0761C21.0996 38.6993 17.5866 36.2923 15.7242 32.9015ZM29.4607 40.1317V20.95C29.4525 20.7802 29.3793 20.62 29.2561 20.5027C29.1329 20.3853 28.9695 20.32 28.7994 20.32C28.6293 20.32 28.4658 20.3853 28.3426 20.5027C28.2196 20.62 28.1463 20.7802 28.1382 20.95V40.1317C27.4444 39.5116 26.799 38.8393 26.2076 38.1208C26.1811 38.0512 26.1435 37.9864 26.0962 37.929C25.9415 37.7572 25.7868 37.5639 25.6213 37.3536C24.1022 35.2419 23.2839 32.9494 23.1895 30.5006C22.9514 24.3378 27.3337 18.8199 28.8002 17.1539C30.2667 18.8199 34.6491 24.3378 34.4108 30.5006C34.3102 33.1073 33.3899 35.5375 31.6774 37.7588C31.6279 37.816 31.5784 37.8763 31.532 37.929C31.5181 37.946 31.5135 37.9661 31.5011 37.9831C30.8813 38.7544 30.1989 39.473 29.4607 40.1317ZM34.9894 25.1592C37.0885 22.7042 41.2528 21.8813 42.7116 21.6615C43.188 23.2379 44.4132 28.3428 41.9056 32.9015C40.0385 36.3047 36.5115 38.7102 31.4145 40.087C31.8761 39.6096 32.3109 39.1072 32.717 38.5817C35.3467 35.4493 39.6595 27.3604 39.8467 27.0078C39.8874 26.9311 39.9125 26.8472 39.9206 26.7607C39.9288 26.6744 39.9199 26.5871 39.8944 26.5042C39.8689 26.4212 39.8273 26.3441 39.772 26.2773C39.7167 26.2104 39.6488 26.1551 39.5722 26.1144C39.4955 26.0738 39.4115 26.0487 39.325 26.0405C39.2387 26.0323 39.1516 26.0411 39.0686 26.0666C38.9857 26.0922 38.9084 26.1338 38.8417 26.189C38.7747 26.2443 38.7194 26.3123 38.6788 26.389C38.6541 26.4354 37.2741 29.0187 35.6205 31.8203C35.6762 31.401 35.7165 30.9787 35.7335 30.5517C35.7833 28.7289 35.5216 26.9111 34.96 25.1763C34.96 25.1763 34.9832 25.1653 34.9894 25.1592Z" stroke="#565656" stroke-width="0.5"/>
<path d="M53.0558 31.0866L52.8531 30.9721L53.0744 30.9024C55.8092 30.0393 56.8147 27.5798 56.5998 25.5254C56.3848 23.4712 54.8873 21.2807 52.0333 20.9992L51.8012 20.9759L51.976 20.8212C54.1231 18.9217 54.0426 16.2641 53.0093 14.479C51.976 12.6938 49.7175 11.2939 46.9966 12.2019L46.7768 12.2761L46.8727 12.0642C48.0623 9.45454 46.9084 7.05992 45.2362 5.8456C43.5639 4.63126 40.931 4.26465 38.8164 6.20758L38.6463 6.36226V6.13022C38.671 3.2638 36.643 1.54672 34.6243 1.11667C32.6056 0.686631 30.0515 1.42606 28.9084 4.05582L28.8156 4.26929L28.7228 4.05582C27.5797 1.42606 25.0272 0.680453 22.9993 1.11667C20.9712 1.5529 18.9494 3.2638 18.9773 6.13022V6.36226L18.8055 6.20758C16.697 4.26465 14.0642 4.62817 12.392 5.84249C10.7198 7.05682 9.56583 9.4515 10.7554 12.0611L10.8513 12.2731L10.6316 12.1988C7.91222 11.2891 5.65219 12.686 4.61874 14.4758C3.58542 16.2656 3.50503 18.9231 5.65219 20.8182L5.82697 20.9729L5.5949 20.9961C2.74086 21.2699 1.24497 23.4712 1.02841 25.5224C0.811844 27.5736 1.81882 30.0362 4.55379 30.8994L4.77503 30.969L4.57399 31.0835C2.07728 32.4958 1.60541 35.1054 2.24268 37.0762C2.88012 39.047 4.8013 40.88 7.65693 40.5537L7.88741 40.5275L7.74973 40.7146C6.0482 43.0194 6.67614 45.6013 8.05914 47.1374C8.93591 48.1167 10.1528 48.7251 11.4623 48.8389L3.85312 59.9536C3.77405 60.0701 3.73419 60.2089 3.73947 60.3496C3.74461 60.4903 3.79464 60.6257 3.88216 60.7362C3.96955 60.8466 4.08993 60.9262 4.22577 60.9635C4.3616 61.0008 4.50574 60.9938 4.63735 60.9436L11.8862 58.1591L14.2855 65.5472C14.3245 65.6658 14.3962 65.771 14.4922 65.8508C14.5882 65.9307 14.7047 65.9819 14.8284 65.9988C14.8573 66.0004 14.8862 66.0004 14.915 65.9988C15.025 65.9991 15.1331 65.9719 15.2298 65.9197C15.3265 65.8676 15.4087 65.7922 15.4689 65.7004L23.9444 52.7543C24.6607 55.2556 26.8588 56.3833 28.814 56.3833C30.7694 56.3833 32.9769 55.251 33.6868 52.7387L42.1593 65.7004C42.2197 65.792 42.302 65.8671 42.3986 65.9192C42.4952 65.9714 42.6033 65.9987 42.713 65.9988C42.742 66.0004 42.7709 66.0004 42.7998 65.9988C42.9236 65.9823 43.0403 65.9312 43.1362 65.8512C43.2323 65.7714 43.3039 65.6659 43.3427 65.5472L45.742 58.1591L52.9908 60.9436C53.1224 60.9938 53.2666 61.0008 53.4024 60.9635C53.5382 60.9262 53.6586 60.8466 53.746 60.7362C53.8335 60.6257 53.8834 60.4903 53.8887 60.3496C53.8939 60.2089 53.8541 60.0701 53.7751 59.9536L46.1797 48.8343C47.4893 48.721 48.7065 48.1124 49.5829 47.1328C50.9659 45.5966 51.594 43.0148 49.8923 40.7099L49.7546 40.5227L49.9851 40.5491C52.8391 40.8754 54.7543 39.0362 55.3994 37.0716C56.0445 35.107 55.5509 32.4989 53.0558 31.0866ZM15.1178 63.8208L12.9289 57.0809C12.9012 56.9954 12.8564 56.9165 12.7973 56.8489C12.738 56.7814 12.6657 56.7265 12.5846 56.688C12.5036 56.6493 12.4154 56.6275 12.3256 56.6241C12.2359 56.6206 12.1464 56.6356 12.0625 56.6679L6.14404 58.9465L13.1778 48.6517C13.6075 48.5247 14.02 48.3455 14.4061 48.118L14.6072 48.0006L14.5562 48.2264C13.9374 51.0263 15.5633 53.1285 17.4504 53.9686C18.0909 54.2566 18.7836 54.4101 19.4859 54.4197C20.188 54.4292 20.8847 54.2947 21.5327 54.0243L15.1178 63.8208ZM51.4856 58.9465L45.5656 56.6679C45.4818 56.6358 45.3923 56.621 45.3025 56.6246C45.2129 56.6282 45.1249 56.6499 45.0438 56.6885C44.9628 56.7272 44.8904 56.7819 44.8313 56.8494C44.772 56.9167 44.7271 56.9955 44.6993 57.0809L42.5104 63.8208L36.1139 54.0351C36.7601 54.3015 37.4538 54.4332 38.1526 54.4221C38.8513 54.4109 39.5405 54.2571 40.1777 53.97C42.0649 53.1301 43.6922 51.031 43.072 48.2279L43.0209 48.0021L43.222 48.1196C43.6082 48.3481 44.0212 48.5274 44.4518 48.6533L51.4856 58.9465ZM54.1262 36.671C53.69 38.0183 52.3766 39.5002 50.1274 39.245L48.3856 39.0455C48.2574 39.0309 48.128 39.0543 48.0128 39.1124C47.8977 39.1705 47.8022 39.261 47.7378 39.3727C47.6733 39.4844 47.643 39.6125 47.6504 39.7412C47.6578 39.8699 47.7025 39.9938 47.7792 40.0974L48.8219 41.5067C50.1693 43.3272 49.5412 45.2037 48.5929 46.2556C47.8287 47.1064 46.5076 47.8026 45.0009 47.4358H44.967C44.5896 47.3372 44.2282 47.1857 43.8934 46.9857L42.3821 46.0963C42.2711 46.0307 42.1433 45.999 42.0146 46.0051C41.8858 46.0111 41.7617 46.0548 41.6574 46.1306C41.5531 46.2064 41.4733 46.3111 41.4279 46.4317C41.3823 46.5524 41.3731 46.6836 41.4013 46.8094L41.7803 48.5064C42.2707 50.72 40.9342 52.1771 39.6393 52.7543C38.3447 53.3312 36.3676 53.3483 35.0512 51.5027L34.0333 50.075C33.9587 49.9697 33.855 49.8886 33.7348 49.8417C33.6147 49.7947 33.4834 49.784 33.3572 49.8108C33.231 49.8376 33.1155 49.9009 33.0248 49.9926C32.9341 50.0844 32.8722 50.2007 32.8469 50.3271L32.4973 52.0457C32.0456 54.267 30.2311 55.0544 28.814 55.0544C27.3971 55.0544 25.5826 54.267 25.1309 52.0457L24.7813 50.3287C24.7556 50.2022 24.6937 50.0861 24.603 49.9943C24.5123 49.9025 24.3969 49.8391 24.2707 49.8119C24.2255 49.8027 24.1794 49.798 24.1331 49.798C24.0278 49.7982 23.9241 49.8234 23.8305 49.8716C23.7369 49.9196 23.6561 49.9895 23.5947 50.075L22.5769 51.5027C21.2605 53.3483 19.2819 53.3297 17.9888 52.7543C16.6956 52.1787 15.3559 50.7262 15.8479 48.5064L16.2284 46.8047C16.2561 46.6789 16.2465 46.5477 16.2007 46.4272C16.155 46.3067 16.075 46.2023 15.9708 46.1265C15.8665 46.0507 15.7424 46.0072 15.6137 46.001C15.4849 45.9948 15.3572 46.0263 15.2461 46.0917L13.7348 46.9811C13.3974 47.1829 13.0326 47.335 12.6519 47.4328H12.6271C11.119 47.8026 9.79631 47.1033 9.03055 46.2526C8.08238 45.2006 7.4543 43.3242 8.80166 41.5035L9.84581 40.0942C9.9225 39.9906 9.96738 39.8669 9.97477 39.7381C9.98217 39.6094 9.95167 39.4813 9.88739 39.3697C9.82297 39.2579 9.72727 39.1674 9.61216 39.1092C9.49719 39.0511 9.36756 39.0279 9.23938 39.0424L7.49602 39.2419C5.2546 39.4956 3.93813 38.0168 3.49724 36.6678C3.05635 35.319 3.24828 33.3528 5.22054 32.2359L6.74729 31.3728C6.85923 31.3091 6.95018 31.2142 7.00906 31.0998C7.06793 30.9852 7.09209 30.856 7.07862 30.7279C7.06516 30.5999 7.0146 30.4786 6.93329 30.3788C6.85184 30.279 6.7432 30.2052 6.62044 30.1661L4.95297 29.634C2.78719 28.9534 2.19635 27.0662 2.34485 25.6569C2.49335 24.2476 3.46635 22.5259 5.72176 22.3094L7.46671 22.1469C7.59475 22.1342 7.71646 22.0845 7.81665 22.0038C7.91697 21.923 7.99156 21.8148 8.03129 21.6924C8.07102 21.5699 8.07419 21.4386 8.0404 21.3144C8.0066 21.1902 7.9373 21.0785 7.84107 20.9929L6.52764 19.8312C4.82612 18.3307 5.05501 16.3646 5.76347 15.1379C6.47193 13.9112 8.06073 12.7355 10.2093 13.4533L11.8754 14.0102C11.9976 14.0513 12.1291 14.0556 12.2538 14.0229C12.3784 13.99 12.4908 13.9215 12.577 13.8256C12.6632 13.7297 12.7194 13.6107 12.7388 13.4833C12.7581 13.3558 12.7397 13.2255 12.686 13.1084L11.9527 11.5119C11.0138 9.44992 12.0177 7.74523 13.164 6.91296C14.3102 6.08072 16.2407 5.65068 17.9115 7.1821L19.2047 8.3671C19.2995 8.45435 19.4179 8.5119 19.5451 8.53276C19.6723 8.55348 19.8028 8.53672 19.9206 8.48418C20.0383 8.43178 20.1381 8.34598 20.2077 8.23747C20.2774 8.12896 20.3137 8.0025 20.3122 7.87354L20.306 6.12094C20.2859 3.85471 21.8963 2.7069 23.2823 2.40835C24.6683 2.1098 26.6067 2.5089 27.5101 4.5864L28.2092 6.19365C28.2604 6.31203 28.345 6.41285 28.4527 6.4837C28.5606 6.55453 28.6866 6.59227 28.8156 6.59227C28.9446 6.59227 29.0708 6.55453 29.1785 6.4837C29.2862 6.41285 29.3709 6.31203 29.422 6.19365L30.1212 4.5864C31.0247 2.5089 32.9629 2.11134 34.3489 2.40835C35.735 2.70536 37.3438 3.85471 37.3222 6.12094L37.3066 7.87354C37.3053 8.0025 37.3416 8.12896 37.4111 8.23747C37.4807 8.34598 37.5806 8.43178 37.6984 8.48418C37.8161 8.53672 37.9465 8.55348 38.0738 8.53276C38.201 8.5119 38.3193 8.45435 38.4142 8.3671L39.7075 7.1821C41.3781 5.65222 43.3086 6.08072 44.455 6.91296C45.6011 7.74523 46.6036 9.44992 45.6755 11.5119L44.9484 13.1068C44.8944 13.2242 44.8759 13.3547 44.8953 13.4824C44.9147 13.61 44.9711 13.7292 45.0576 13.8252C45.1439 13.9211 45.2566 13.9896 45.3815 14.0223C45.5065 14.0549 45.6382 14.0501 45.7605 14.0087L47.4234 13.4533C49.5706 12.7355 51.1623 13.9174 51.8693 15.1379C52.5762 16.3584 52.7974 18.3307 51.1052 19.8312L49.7917 20.9929C49.6956 21.0781 49.6263 21.1895 49.5924 21.3133C49.5583 21.4371 49.5611 21.5682 49.6003 21.6906C49.6395 21.8128 49.7134 21.9211 49.8131 22.0021C49.9126 22.0832 50.0338 22.1335 50.1615 22.1469L51.908 22.3156C54.1634 22.5321 55.1364 24.2554 55.2849 25.6631C55.4334 27.0708 54.8394 28.9596 52.6784 29.6402L51.0061 30.1677C50.8829 30.2061 50.7736 30.2798 50.6918 30.3796C50.61 30.4794 50.5592 30.6009 50.5457 30.7292C50.5323 30.8577 50.5565 30.987 50.6158 31.1018C50.6752 31.2163 50.7667 31.3111 50.8793 31.3743L52.4045 32.2375C54.3753 33.3544 54.564 35.3236 54.1262 36.6694V36.671Z" stroke="#565656" stroke-width="0.5"/>
</svg>
