<svg width="174" height="44" viewBox="0 0 174 44" fill="none" xmlns="http://www.w3.org/2000/svg">
<path d="M51.0634 31.2805H63.5164V27.3292H55.4895V12.4463H51.0634V31.2805Z" fill="#565656"/>
<path d="M70.8944 28.6463C69.119 28.6463 68.1938 27.0131 68.1938 24.5634C68.1938 22.1136 69.119 20.4541 70.8944 20.4541C72.6698 20.4541 73.6201 22.1136 73.6201 24.5634C73.6201 27.0131 72.6698 28.6463 70.8944 28.6463ZM70.9194 31.7019C75.0454 31.7019 77.7461 28.62 77.7461 24.5634C77.7461 20.5068 75.0454 17.4249 70.9194 17.4249C66.8184 17.4249 64.0678 20.5068 64.0678 24.5634C64.0678 28.62 66.8184 31.7019 70.9194 31.7019Z" fill="#565656"/>
<path d="M84.8878 35.9429C86.7882 35.9429 88.4636 35.4951 89.5889 34.4414C90.6141 33.4668 91.2893 31.9917 91.2893 29.9634V17.7936H87.3884V19.2424H87.3383C86.5882 18.1097 85.4379 17.3985 83.7375 17.3985C80.5617 17.3985 78.3612 20.1907 78.3612 24.1419C78.3612 28.2775 81.0368 30.5429 83.9125 30.5429C85.4629 30.5429 86.4381 29.8844 87.1883 28.9888H87.2883V30.3322C87.2883 31.9653 86.5632 32.9136 84.8378 32.9136C83.4874 32.9136 82.8123 32.3078 82.5872 31.5966H78.6363C79.0364 34.4151 81.3619 35.9429 84.8878 35.9429ZM84.8628 27.3556C83.3374 27.3556 82.3372 26.0385 82.3372 24.0102C82.3372 21.9556 83.3374 20.6385 84.8628 20.6385C86.5632 20.6385 87.4634 22.1663 87.4634 23.9839C87.4634 25.8805 86.6382 27.3556 84.8628 27.3556Z" fill="#565656"/>
<path d="M99.3104 28.6463C97.535 28.6463 96.6097 27.0131 96.6097 24.5634C96.6097 22.1136 97.535 20.4541 99.3104 20.4541C101.086 20.4541 102.036 22.1136 102.036 24.5634C102.036 27.0131 101.086 28.6463 99.3104 28.6463ZM99.3354 31.7019C103.461 31.7019 106.162 28.62 106.162 24.5634C106.162 20.5068 103.461 17.4249 99.3354 17.4249C95.2344 17.4249 92.4837 20.5068 92.4837 24.5634C92.4837 28.62 95.2344 31.7019 99.3354 31.7019Z" fill="#565656"/>
<path d="M107.352 31.2805H111.428V17.7936H107.352V31.2805ZM107.352 15.9234H111.428V12.4463H107.352V15.9234Z" fill="#565656"/>
<path d="M113.196 35.7322H117.272V29.8844H117.322C118.123 31.017 119.298 31.7019 120.948 31.7019C124.299 31.7019 126.525 28.9097 126.525 24.537C126.525 20.4805 124.449 17.3985 121.048 17.3985C119.298 17.3985 118.047 18.2151 117.172 19.4268H117.097V17.7936H113.196V35.7322ZM119.898 28.3829C118.148 28.3829 117.147 26.8814 117.147 24.6951C117.147 22.5088 118.047 20.8492 119.823 20.8492C121.573 20.8492 122.399 22.3771 122.399 24.6951C122.399 26.9868 121.448 28.3829 119.898 28.3829Z" fill="#565656"/>
<path d="M133.162 31.7019C136.512 31.7019 138.988 30.1741 138.988 27.2239C138.988 23.7731 136.337 23.1673 134.087 22.7722C132.461 22.4561 131.011 22.3244 131.011 21.3761C131.011 20.5331 131.786 20.138 132.786 20.138C133.912 20.138 134.687 20.5068 134.837 21.7185H138.588C138.388 19.058 136.437 17.3985 132.811 17.3985C129.786 17.3985 127.285 18.8736 127.285 21.7185C127.285 24.8795 129.661 25.5117 131.886 25.9068C133.587 26.2229 135.137 26.3546 135.137 27.5663C135.137 28.4356 134.362 28.9097 133.137 28.9097C131.786 28.9097 130.936 28.2512 130.786 26.9078H126.935C127.06 29.8844 129.411 31.7019 133.162 31.7019Z" fill="#565656"/>
<path d="M144.524 31.6756C146.299 31.6756 147.424 30.938 148.35 29.621H148.425V31.2805H152.325V17.7936H148.249V25.3273C148.249 26.9341 147.399 28.0405 145.999 28.0405C144.699 28.0405 144.074 27.2239 144.074 25.7488V17.7936H140.023V26.6444C140.023 29.6473 141.573 31.6756 144.524 31.6756Z" fill="#565656"/>
<path d="M154.099 31.2805H158.175V23.7205C158.175 22.1136 158.925 20.9809 160.2 20.9809C161.426 20.9809 162.001 21.8239 162.001 23.2727V31.2805H166.077V23.7205C166.077 22.1136 166.802 20.9809 168.102 20.9809C169.327 20.9809 169.903 21.8239 169.903 23.2727V31.2805H173.979V22.5088C173.979 19.4795 172.528 17.3985 169.628 17.3985C167.977 17.3985 166.602 18.1361 165.602 19.7692H165.552C164.901 18.3205 163.626 17.3985 161.951 17.3985C160.1 17.3985 158.875 18.3205 158.075 19.7166H158V17.7936H154.099V31.2805Z" fill="#565656"/>
<path fill-rule="evenodd" clip-rule="evenodd" d="M9.41123 3.94888C7.9206 5.04683 6.57267 6.34497 5.40255 7.80629C10.1842 7.33865 16.2591 8.10225 23.3121 11.8171C30.8437 15.7839 36.9085 15.918 41.1293 15.0604C40.7463 13.8389 40.2641 12.6649 39.693 11.5489C34.8613 12.0858 28.6671 11.3752 21.4483 7.57314C16.8643 5.15873 12.8235 4.16415 9.41123 3.94888ZM36.8705 7.31705C33.0549 2.82621 27.51 0 21.3383 0C19.5259 0 17.7673 0.243776 16.0909 0.701868C18.3614 1.35448 20.7735 2.30925 23.3121 3.64639C28.5973 6.43009 33.1603 7.32639 36.8705 7.31705ZM42.0317 19.3479C36.9325 20.4086 29.8912 20.1907 21.4483 15.7438C13.5552 11.5865 7.2729 11.6388 3.03592 12.6307C2.81722 12.6819 2.60367 12.7356 2.39528 12.7916C1.84055 14.0625 1.39775 15.3989 1.08004 16.7866C1.41937 16.6911 1.77002 16.6004 2.13181 16.5156C7.27201 15.3124 14.5347 15.3646 23.3121 19.9878C31.2053 24.1451 37.4876 24.0928 41.7246 23.1009C41.8698 23.067 42.0128 23.0319 42.1535 22.9956C42.1689 22.6496 42.1766 22.3013 42.1766 21.9512C42.1766 21.0704 42.1274 20.2017 42.0317 19.3479ZM41.4731 27.6281C36.4235 28.5581 29.5871 28.2011 21.4483 23.9145C13.5552 19.7572 7.2729 19.8095 3.03592 20.8014C2.09543 21.0215 1.24939 21.2896 0.503053 21.5726C0.501018 21.6985 0.5 21.8248 0.5 21.9512C0.5 34.0745 9.82962 43.9024 21.3383 43.9024C30.9834 43.9024 39.0981 36.9997 41.4731 27.6281Z" fill="#565656"/>
</svg>
