<svg width="180" height="44" viewBox="0 0 180 44" fill="none" xmlns="http://www.w3.org/2000/svg">
<path d="M51.8172 31.6262H63.6979V28.1511H55.44V11.9244H51.8172V31.6262Z" fill="#565656"/>
<path d="M70.8374 32.0367C72.2759 32.0367 73.5413 31.7083 74.6334 31.0515C75.7345 30.3857 76.5913 29.469 77.2041 28.3016C77.8256 27.1249 78.1364 25.7704 78.1364 24.2381C78.1364 22.7148 77.83 21.3694 77.2174 20.2019C76.6046 19.0253 75.7477 18.104 74.6467 17.4382C73.5546 16.7723 72.2848 16.4394 70.8374 16.4394C69.4167 16.4394 68.1602 16.7678 67.0681 17.4245C65.9759 18.0812 65.1191 18.9979 64.4974 20.1746C63.8759 21.342 63.5651 22.6965 63.5651 24.2381C63.5651 25.7612 63.867 27.1112 64.4709 28.2878C65.0835 29.4554 65.936 30.372 67.0281 31.0379C68.1204 31.7037 69.3901 32.0367 70.8374 32.0367ZM70.8374 28.5615C69.7097 28.5615 68.8529 28.1739 68.2669 27.3986C67.6896 26.6142 67.4011 25.5607 67.4011 24.2381C67.4011 22.952 67.6763 21.9121 68.2269 21.1185C68.7862 20.3159 69.6564 19.9145 70.8374 19.9145C71.9829 19.9145 72.8442 20.3068 73.4214 21.0912C74.0074 21.8757 74.3004 22.9245 74.3004 24.2381C74.3004 25.5059 74.0119 26.5457 73.4346 27.3575C72.8664 28.1601 72.0006 28.5615 70.8374 28.5615Z" fill="#565656"/>
<path d="M85.3008 32.0367C85.9757 32.0367 86.5972 31.9545 87.1656 31.7904C87.7428 31.6262 88.2666 31.3936 88.7373 31.0926V32.584C88.7551 33.1312 88.6173 33.5872 88.3243 33.9521C88.0402 34.3261 87.6584 34.6043 87.1789 34.7867C86.6994 34.9783 86.1888 35.0741 85.6472 35.0741C85.141 35.0741 84.6704 34.96 84.2354 34.732C83.8091 34.504 83.4805 34.1711 83.2497 33.7332L79.8933 35.4024C80.4438 36.3601 81.2296 37.1309 82.2508 37.7146C83.272 38.3075 84.3952 38.604 85.6205 38.604C86.6772 38.604 87.6584 38.458 88.5641 38.1661C89.4698 37.8834 90.2335 37.4502 90.855 36.8663C91.4854 36.2826 91.9161 35.5392 92.147 34.6362C92.2269 34.317 92.2801 33.9932 92.3068 33.6648C92.3423 33.3456 92.3601 33.0035 92.3601 32.6387V16.8498H89.1901V17.6708C88.7017 17.2785 88.1467 16.9775 87.5252 16.7678C86.9125 16.5488 86.2333 16.4394 85.4873 16.4394C84.111 16.4394 82.9123 16.7769 81.8912 17.4518C80.87 18.1268 80.0753 19.0526 79.507 20.2293C78.9476 21.3967 78.6679 22.7331 78.6679 24.2381C78.6679 25.7157 78.9432 27.0428 79.4937 28.2194C80.0531 29.396 80.83 30.3265 81.8245 31.0106C82.819 31.6946 83.9778 32.0367 85.3008 32.0367ZM85.8869 28.7257C85.1056 28.7257 84.4662 28.525 83.9689 28.1237C83.4717 27.7224 83.1032 27.1842 82.8635 26.5092C82.6237 25.8251 82.5038 25.0681 82.5038 24.2381C82.5038 23.4171 82.6281 22.6692 82.8768 21.9942C83.1255 21.3101 83.5072 20.7674 84.0222 20.366C84.5461 19.9556 85.2121 19.7504 86.0201 19.7504C87.1567 19.7504 87.9691 20.1654 88.4575 20.9955C88.9459 21.8163 89.1901 22.8972 89.1901 24.2381C89.1901 25.5788 88.9414 26.6642 88.4442 27.4943C87.9558 28.3152 87.1035 28.7257 85.8869 28.7257Z" fill="#565656"/>
<path d="M100.965 32.0367C102.403 32.0367 103.669 31.7083 104.761 31.0515C105.862 30.3857 106.719 29.469 107.331 28.3016C107.953 27.1249 108.263 25.7704 108.263 24.2381C108.263 22.7148 107.958 21.3694 107.345 20.2019C106.732 19.0253 105.875 18.104 104.774 17.4382C103.682 16.7723 102.412 16.4394 100.965 16.4394C99.5442 16.4394 98.2877 16.7678 97.1956 17.4245C96.1035 18.0812 95.2466 18.9979 94.6249 20.1746C94.0034 21.342 93.6926 22.6965 93.6926 24.2381C93.6926 25.7612 93.9945 27.1112 94.5984 28.2878C95.211 29.4554 96.0635 30.372 97.1556 31.0379C98.2478 31.7037 99.5176 32.0367 100.965 32.0367ZM100.965 28.5615C99.8372 28.5615 98.9803 28.1739 98.3943 27.3986C97.8171 26.6142 97.5286 25.5607 97.5286 24.2381C97.5286 22.952 97.8038 21.9121 98.3544 21.1185C98.9137 20.3159 99.7839 19.9145 100.965 19.9145C102.11 19.9145 102.972 20.3068 103.549 21.0912C104.135 21.8757 104.428 22.9245 104.428 24.2381C104.428 25.5059 104.139 26.5457 103.562 27.3575C102.994 28.1601 102.128 28.5615 100.965 28.5615Z" fill="#565656"/>
<path d="M109.86 14.7975H113.483V11.514H109.86V14.7975ZM109.86 31.6262H113.483V16.8498H109.86V31.6262Z" fill="#565656"/>
<path d="M115.852 38.1935H119.501V31.0926C119.972 31.3936 120.491 31.6262 121.059 31.7904C121.637 31.9545 122.263 32.0367 122.938 32.0367C124.26 32.0367 125.42 31.6946 126.414 31.0106C127.408 30.3265 128.181 29.396 128.731 28.2194C129.291 27.0428 129.57 25.7157 129.57 24.2381C129.57 22.7331 129.287 21.3967 128.719 20.2293C128.159 19.0526 127.369 18.1268 126.347 17.4518C125.326 16.7769 124.128 16.4394 122.751 16.4394C122.005 16.4394 121.322 16.5488 120.7 16.7678C120.087 16.9775 119.537 17.2785 119.049 17.6708V16.8498H115.852V38.1935ZM122.352 28.7257C121.144 28.7257 120.292 28.3152 119.794 27.4943C119.297 26.6642 119.049 25.5788 119.049 24.2381C119.049 22.8972 119.293 21.8163 119.781 20.9955C120.278 20.1654 121.091 19.7504 122.219 19.7504C123.027 19.7504 123.688 19.9556 124.203 20.366C124.727 20.7674 125.113 21.3101 125.361 21.9942C125.61 22.6692 125.735 23.4171 125.735 24.2381C125.735 25.0681 125.615 25.8251 125.375 26.5092C125.135 27.1842 124.767 27.7224 124.27 28.1237C123.773 28.525 123.133 28.7257 122.352 28.7257Z" fill="#565656"/>
<path d="M136.134 32.0367C138.016 32.0367 139.49 31.6034 140.556 30.7369C141.621 29.8703 142.154 28.6801 142.154 27.166C142.154 26.0167 141.807 25.1092 141.116 24.4433C140.431 23.7774 139.269 23.2255 137.625 22.7878C136.507 22.4958 135.672 22.2587 135.121 22.0763C134.58 21.8939 134.22 21.716 134.042 21.5427C133.874 21.3694 133.79 21.1551 133.79 20.8997C133.79 20.471 133.989 20.1427 134.389 19.9145C134.798 19.6865 135.335 19.5954 136 19.641C137.412 19.7504 138.185 20.3707 138.318 21.5017L142.021 20.8175C141.835 19.4768 141.195 18.4142 140.103 17.6297C139.011 16.8362 137.617 16.4394 135.921 16.4394C134.18 16.4394 132.791 16.859 131.751 17.6981C130.713 18.5372 130.193 19.6683 130.193 21.0912C130.193 22.2222 130.553 23.1161 131.272 23.7728C131.991 24.4205 133.23 24.9768 134.988 25.4421C136.027 25.7248 136.79 25.9528 137.279 26.1261C137.776 26.2994 138.096 26.4773 138.238 26.6597C138.38 26.833 138.451 27.0657 138.451 27.3575C138.451 27.8227 138.273 28.1875 137.919 28.4521C137.564 28.7074 137.057 28.8351 136.4 28.8351C135.6 28.8351 134.939 28.639 134.416 28.2468C133.901 27.8546 133.567 27.3119 133.416 26.6187L129.714 27.1933C129.954 28.7348 130.629 29.9297 131.739 30.778C132.858 31.6171 134.323 32.0367 136.134 32.0367Z" fill="#565656"/>
<path d="M148.837 32.0641C149.876 32.0641 150.781 31.8862 151.555 31.5305C152.327 31.1747 152.975 30.7004 153.499 30.1076V31.6262H156.695V16.8498H153.046V24.3475C153.046 25.2597 152.943 25.9984 152.739 26.564C152.545 27.1204 152.291 27.5445 151.98 27.8363C151.67 28.1192 151.337 28.3106 150.981 28.411C150.626 28.5113 150.293 28.5615 149.983 28.5615C149.21 28.5615 148.611 28.3836 148.185 28.0279C147.767 27.6722 147.465 27.2298 147.278 26.7008C147.092 26.1717 146.981 25.6473 146.946 25.1273C146.91 24.5983 146.892 24.1651 146.892 23.8275V16.8498H143.216V25.1411C143.216 25.3873 143.234 25.7795 143.269 26.3177C143.305 26.8558 143.407 27.4533 143.576 28.11C143.744 28.7576 144.024 29.3824 144.415 29.9844C144.815 30.5864 145.37 31.0835 146.08 31.4757C146.79 31.8679 147.71 32.0641 148.837 32.0641Z" fill="#565656"/>
<path d="M158.793 31.6262H162.442V22.6783C162.442 21.8301 162.668 21.1414 163.122 20.6123C163.583 20.0742 164.191 19.8051 164.947 19.8051C165.737 19.8051 166.354 20.0788 166.798 20.6261C167.25 21.1642 167.477 21.9212 167.477 22.8972V31.6262H171.1V22.6783C171.1 21.8301 171.326 21.1414 171.779 20.6123C172.241 20.0742 172.849 19.8051 173.603 19.8051C174.395 19.8051 175.011 20.0788 175.455 20.6261C175.908 21.1642 176.135 21.9212 176.135 22.8972V31.6262H179.757V21.9121C179.757 20.2977 179.335 18.9934 178.492 17.9991C177.658 16.9958 176.419 16.4941 174.776 16.4941C173.853 16.4941 173.005 16.6993 172.232 17.1098C171.459 17.5203 170.843 18.0812 170.38 18.7927C170.008 18.0995 169.475 17.5431 168.782 17.1235C168.089 16.7039 167.228 16.4941 166.198 16.4941C165.328 16.4941 164.529 16.672 163.801 17.0277C163.072 17.3743 162.469 17.8532 161.989 18.4643V16.8498H158.793V31.6262Z" fill="#565656"/>
<path d="M21.4302 0.451233C9.87078 0.451233 0.5 10.0771 0.5 21.9512C12.0595 21.9512 21.4302 12.3254 21.4302 0.451233Z" fill="#565656"/>
<path d="M21.4302 43.4512C32.9897 43.4512 42.3605 33.8254 42.3605 21.9512C30.801 21.9512 21.4302 31.5771 21.4302 43.4512Z" fill="#565656"/>
<path d="M21.4302 0.451233C32.9897 0.451233 42.3605 10.0771 42.3605 21.9512C30.801 21.9512 21.4302 12.3254 21.4302 0.451233Z" fill="#565656"/>
<path d="M21.4302 43.4512C9.87078 43.4512 0.499999 33.8254 0.5 21.9512C12.0595 21.9512 21.4302 31.5771 21.4302 43.4512Z" fill="#565656"/>
</svg>
