<svg width="177" height="44" viewBox="0 0 177 44" fill="none" xmlns="http://www.w3.org/2000/svg">
<path d="M53.7833 31.8292H66.2274V27.878H58.2062V12.9951H53.7833V31.8292Z" fill="#565656"/>
<path d="M73.6001 29.1951C71.826 29.1951 70.9014 27.5619 70.9014 25.1121C70.9014 22.6624 71.826 21.0029 73.6001 21.0029C75.3743 21.0029 76.3238 22.6624 76.3238 25.1121C76.3238 27.5619 75.3743 29.1951 73.6001 29.1951ZM73.6251 32.2507C77.7482 32.2507 80.4469 29.1687 80.4469 25.1121C80.4469 21.0556 77.7482 17.9736 73.6251 17.9736C69.527 17.9736 66.7783 21.0556 66.7783 25.1121C66.7783 29.1687 69.527 32.2507 73.6251 32.2507Z" fill="#565656"/>
<path d="M87.5835 36.4917C89.4826 36.4917 91.1569 36.0439 92.2813 34.9902C93.3058 34.0156 93.9805 32.5404 93.9805 30.5121V18.3424H90.0824V19.7912H90.0324C89.2827 18.6585 88.1333 17.9473 86.4341 17.9473C83.2606 17.9473 81.0616 20.7395 81.0616 24.6907C81.0616 28.8263 83.7354 31.0917 86.609 31.0917C88.1583 31.0917 89.1328 30.4331 89.8825 29.5375H89.9824V30.8809C89.9824 32.5141 89.2578 33.4624 87.5336 33.4624C86.1842 33.4624 85.5095 32.8565 85.2846 32.1453H81.3365C81.7363 34.9639 84.0602 36.4917 87.5835 36.4917ZM87.5586 27.9043C86.0343 27.9043 85.0347 26.5873 85.0347 24.559C85.0347 22.5043 86.0343 21.1873 87.5586 21.1873C89.2578 21.1873 90.1573 22.7151 90.1573 24.5326C90.1573 26.4292 89.3327 27.9043 87.5586 27.9043Z" fill="#565656"/>
<path d="M101.996 29.1951C100.222 29.1951 99.2972 27.5619 99.2972 25.1121C99.2972 22.6624 100.222 21.0029 101.996 21.0029C103.77 21.0029 104.719 22.6624 104.719 25.1121C104.719 27.5619 103.77 29.1951 101.996 29.1951ZM102.021 32.2507C106.144 32.2507 108.842 29.1687 108.842 25.1121C108.842 21.0556 106.144 17.9736 102.021 17.9736C97.9228 17.9736 95.1741 21.0556 95.1741 25.1121C95.1741 29.1687 97.9228 32.2507 102.021 32.2507Z" fill="#565656"/>
<path d="M110.032 31.8292H114.105V18.3424H110.032V31.8292ZM110.032 16.4721H114.105V12.9951H110.032V16.4721Z" fill="#565656"/>
<path d="M115.872 36.2809H119.945V30.4331H119.995C120.795 31.5658 121.969 32.2507 123.619 32.2507C126.967 32.2507 129.191 29.4585 129.191 25.0858C129.191 21.0292 127.117 17.9473 123.719 17.9473C121.969 17.9473 120.72 18.7639 119.845 19.9756H119.77V18.3424H115.872V36.2809ZM122.569 28.9317C120.82 28.9317 119.82 27.4302 119.82 25.2439C119.82 23.0575 120.72 21.398 122.494 21.398C124.243 21.398 125.068 22.9258 125.068 25.2439C125.068 27.5356 124.118 28.9317 122.569 28.9317Z" fill="#565656"/>
<path d="M135.822 32.2507C139.171 32.2507 141.645 30.7229 141.645 27.7726C141.645 24.3219 138.996 23.716 136.747 23.3209C135.123 23.0048 133.673 22.8731 133.673 21.9248C133.673 21.0819 134.448 20.6868 135.447 20.6868C136.572 20.6868 137.347 21.0556 137.496 22.2673H141.245C141.045 19.6068 139.096 17.9473 135.472 17.9473C132.449 17.9473 129.95 19.4224 129.95 22.2673C129.95 25.4282 132.324 26.0604 134.548 26.4556C136.247 26.7717 137.796 26.9034 137.796 28.1151C137.796 28.9843 137.022 29.4585 135.797 29.4585C134.448 29.4585 133.598 28.7999 133.448 27.4565H129.6C129.725 30.4331 132.074 32.2507 135.822 32.2507Z" fill="#565656"/>
<path d="M147.177 32.2243C148.952 32.2243 150.076 31.4868 151.001 30.1697H151.076V31.8292H154.974V18.3424H150.901V25.8761C150.901 27.4829 150.051 28.5892 148.652 28.5892C147.352 28.5892 146.728 27.7726 146.728 26.2975V18.3424H142.679V27.1931C142.679 30.1961 144.229 32.2243 147.177 32.2243Z" fill="#565656"/>
<path d="M156.746 31.8292H160.819V24.2692C160.819 22.6624 161.569 21.5297 162.843 21.5297C164.067 21.5297 164.642 22.3726 164.642 23.8214V31.8292H168.715V24.2692C168.715 22.6624 169.44 21.5297 170.739 21.5297C171.964 21.5297 172.538 22.3726 172.538 23.8214V31.8292H176.611V23.0575C176.611 20.0282 175.162 17.9473 172.263 17.9473C170.614 17.9473 169.24 18.6848 168.24 20.318H168.19C167.541 18.8692 166.266 17.9473 164.592 17.9473C162.743 17.9473 161.519 18.8692 160.719 20.2653H160.644V18.3424H156.746V31.8292Z" fill="#565656"/>
<path fill-rule="evenodd" clip-rule="evenodd" d="M21.3235 43.9024C32.8241 43.9024 42.147 34.0745 42.147 21.9512C42.147 9.82789 32.8241 0 21.3235 0C9.82299 0 0.5 9.82789 0.5 21.9512C0.5 34.0745 9.82299 43.9024 21.3235 43.9024ZM24.5376 16.9601C26.3126 15.0889 26.3126 12.0551 24.5376 10.1839C22.7625 8.31268 19.8846 8.31268 18.1095 10.1839C16.3345 12.0551 16.3345 15.0889 18.1095 16.9601L21.3235 20.3482L24.5376 16.9601ZM26.0582 25.3393C27.8333 27.2106 30.7113 27.2106 32.4864 25.3393C34.2613 23.4681 34.2613 20.4343 32.4864 18.5631C30.7113 16.692 27.8333 16.692 26.0582 18.5631L22.8442 21.9513L26.0582 25.3393ZM24.5376 33.7186C26.3126 31.8473 26.3126 28.8136 24.5376 26.9423L21.3235 23.5543L18.1095 26.9423C16.3345 28.8136 16.3345 31.8473 18.1095 33.7186C19.8846 35.5898 22.7625 35.5898 24.5376 33.7186ZM10.1607 25.3393C8.38565 23.4681 8.38565 20.4343 10.1607 18.5631C11.9358 16.692 14.8137 16.692 16.5888 18.5631L19.8028 21.9513L16.5888 25.3393C14.8137 27.2106 11.9358 27.2106 10.1607 25.3393Z" fill="#565656"/>
</svg>
