<svg width="179" height="44" viewBox="0 0 179 44" fill="none" xmlns="http://www.w3.org/2000/svg">
<path d="M54.3853 30.7317H66.9701V26.7805H58.8582V11.8975H54.3853V30.7317Z" fill="#565656"/>
<path d="M74.4261 28.0975C72.6319 28.0975 71.6968 26.4644 71.6968 24.0146C71.6968 21.5648 72.6319 19.9053 74.4261 19.9053C76.2203 19.9053 77.1806 21.5648 77.1806 24.0146C77.1806 26.4644 76.2203 28.0975 74.4261 28.0975ZM74.4513 31.1531C78.621 31.1531 81.3502 28.0712 81.3502 24.0146C81.3502 19.958 78.621 16.8761 74.4513 16.8761C70.307 16.8761 67.5272 19.958 67.5272 24.0146C67.5272 28.0712 70.307 31.1531 74.4513 31.1531Z" fill="#565656"/>
<path d="M88.5676 35.3941C90.4882 35.3941 92.1813 34.9463 93.3185 33.8926C94.3546 32.918 95.0369 31.4429 95.0369 29.4146V17.2448H91.0947V18.6936H91.0441C90.286 17.5609 89.1236 16.8497 87.4052 16.8497C84.1958 16.8497 81.972 19.6419 81.972 23.5931C81.972 27.7287 84.6759 29.9941 87.582 29.9941C89.1488 29.9941 90.1344 29.3356 90.8925 28.44H90.9936V29.7834C90.9936 31.4166 90.2607 32.3648 88.5171 32.3648C87.1525 32.3648 86.4701 31.759 86.2427 31.0478H82.2499C82.6543 33.8663 85.0044 35.3941 88.5676 35.3941ZM88.5423 26.8068C87.0008 26.8068 85.99 25.4897 85.99 23.4614C85.99 21.4068 87.0008 20.0897 88.5423 20.0897C90.2607 20.0897 91.1705 21.6175 91.1705 23.4351C91.1705 25.3317 90.3365 26.8068 88.5423 26.8068Z" fill="#565656"/>
<path d="M103.143 28.0975C101.349 28.0975 100.413 26.4644 100.413 24.0146C100.413 21.5648 101.349 19.9053 103.143 19.9053C104.937 19.9053 105.897 21.5648 105.897 24.0146C105.897 26.4644 104.937 28.0975 103.143 28.0975ZM103.168 31.1531C107.338 31.1531 110.067 28.0712 110.067 24.0146C110.067 19.958 107.338 16.8761 103.168 16.8761C99.0236 16.8761 96.2439 19.958 96.2439 24.0146C96.2439 28.0712 99.0236 31.1531 103.168 31.1531Z" fill="#565656"/>
<path d="M111.269 30.7317H115.388V17.2448H111.269V30.7317ZM111.269 15.3746H115.388V11.8975H111.269V15.3746Z" fill="#565656"/>
<path d="M117.176 35.1834H121.295V29.3356H121.346C122.155 30.4683 123.342 31.1531 125.01 31.1531C128.396 31.1531 130.646 28.3609 130.646 23.9883C130.646 19.9317 128.548 16.8497 125.111 16.8497C123.342 16.8497 122.079 17.6663 121.194 18.878H121.119V17.2448H117.176V35.1834ZM123.949 27.8341C122.18 27.8341 121.169 26.3327 121.169 24.1463C121.169 21.96 122.079 20.3005 123.873 20.3005C125.642 20.3005 126.476 21.8283 126.476 24.1463C126.476 26.438 125.516 27.8341 123.949 27.8341Z" fill="#565656"/>
<path d="M137.352 31.1531C140.738 31.1531 143.24 29.6253 143.24 26.6751C143.24 23.2244 140.561 22.6185 138.287 22.2234C136.644 21.9073 135.178 21.7756 135.178 20.8273C135.178 19.9844 135.962 19.5892 136.973 19.5892C138.11 19.5892 138.893 19.958 139.045 21.1697H142.835C142.633 18.5092 140.662 16.8497 136.998 16.8497C133.94 16.8497 131.413 18.3248 131.413 21.1697C131.413 24.3307 133.814 24.9629 136.063 25.358C137.781 25.6741 139.348 25.8058 139.348 27.0175C139.348 27.8868 138.565 28.3609 137.326 28.3609C135.962 28.3609 135.103 27.7024 134.951 26.359H131.059C131.186 29.3356 133.561 31.1531 137.352 31.1531Z" fill="#565656"/>
<path d="M148.835 31.1268C150.629 31.1268 151.767 30.3892 152.702 29.0722H152.777V30.7317H156.72V17.2448H152.6V24.7785C152.6 26.3853 151.741 27.4917 150.326 27.4917C149.012 27.4917 148.38 26.6751 148.38 25.2V17.2448H144.286V26.0956C144.286 29.0985 145.853 31.1268 148.835 31.1268Z" fill="#565656"/>
<path d="M158.511 30.7317H162.63V23.1717C162.63 21.5648 163.388 20.4322 164.677 20.4322C165.915 20.4322 166.496 21.2751 166.496 22.7239V30.7317H170.615V23.1717C170.615 21.5648 171.348 20.4322 172.662 20.4322C173.9 20.4322 174.482 21.2751 174.482 22.7239V30.7317H178.601V21.96C178.601 18.9307 177.135 16.8497 174.204 16.8497C172.536 16.8497 171.146 17.5873 170.135 19.2205H170.085C169.427 17.7717 168.139 16.8497 166.446 16.8497C164.576 16.8497 163.337 17.7717 162.529 19.1678H162.453V17.2448H158.511V30.7317Z" fill="#565656"/>
<path fill-rule="evenodd" clip-rule="evenodd" d="M21.5588 43.9024C33.1893 43.9024 42.6177 34.0745 42.6177 21.9512C42.6177 9.8279 33.1893 0 21.5588 0C9.92834 0 0.5 9.8279 0.5 21.9512C0.5 34.0745 9.92834 43.9024 21.5588 43.9024ZM28.1285 10.2258C28.4482 9.04176 27.3459 8.34161 26.3392 9.08923L12.2857 19.5251C11.1939 20.3359 11.3656 21.9512 12.5437 21.9512H16.2443V21.9213H23.4568L17.58 24.0828L14.9892 33.6767C14.6694 34.8607 15.7717 35.5608 16.7785 34.8132L30.832 24.3773C31.9238 23.5666 31.7519 21.9512 30.574 21.9512H24.9621L28.1285 10.2258Z" fill="#565656"/>
</svg>
