<svg width="185" height="35" viewBox="0 0 185 35" fill="none" xmlns="http://www.w3.org/2000/svg">
<path d="M12.9015 29.8362C9.35661 33.4402 3.35294 33.4259 1.67627 28.6225C1.34801 27.6821 1.08555 26.7152 0.892506 25.7285C0.10433 21.6999 0.508851 17.5243 2.05492 13.7294C3.60098 9.93472 6.21915 6.69125 9.57833 4.40928C12.9376 2.1273 16.8869 0.909302 20.927 0.909302C24.967 0.909302 28.9164 2.1273 32.2755 4.40928C35.6347 6.69125 38.2529 9.93472 39.799 13.7296C41.345 17.5243 41.7495 21.6999 40.9614 25.7285C40.7683 26.7152 40.5059 27.6821 40.1775 28.6225C38.5009 33.4259 32.4972 33.4402 28.9523 29.8362L23.4803 24.2729C22.9575 23.7414 23.0115 22.8648 23.1557 22.1276C23.2433 21.6795 23.1984 21.215 23.0263 20.7928C22.8543 20.3706 22.5631 20.0098 22.1894 19.756C21.8157 19.5021 21.3764 19.3666 20.927 19.3666C20.4775 19.3666 20.0382 19.5021 19.6645 19.756C19.2907 20.0098 18.9995 20.3706 18.8275 20.7928C18.6555 21.215 18.6105 21.6795 18.6982 22.1276C18.8424 22.8648 18.8963 23.7414 18.3735 24.2729L12.9015 29.8362Z" fill="#565656"/>
<path d="M57.9727 24.8501H63.4634V28.1398H53.7811V10.6451H57.9727V24.8501Z" fill="#565656"/>
<path d="M70.9535 28.3392C69.6135 28.3392 68.4042 28.0484 67.3256 27.4669C66.2635 26.8855 65.4218 26.0548 64.8009 24.9748C64.1963 23.8949 63.8939 22.6322 63.8939 21.1867C63.8939 19.758 64.2043 18.5036 64.8253 17.4236C65.4464 16.3272 66.2961 15.4881 67.3746 14.9066C68.4532 14.3252 69.6625 14.0344 71.0025 14.0344C72.3425 14.0344 73.5518 14.3252 74.6303 14.9066C75.7089 15.4881 76.5586 16.3272 77.1796 17.4236C77.8005 18.5036 78.1111 19.758 78.1111 21.1867C78.1111 22.6156 77.7923 23.8782 77.1551 24.9748C76.5341 26.0548 75.6762 26.8855 74.5812 27.4669C73.5028 28.0484 72.2935 28.3392 70.9535 28.3392ZM70.9535 24.6508C71.7542 24.6508 72.4324 24.3518 72.988 23.7537C73.56 23.1555 73.846 22.3 73.846 21.1867C73.846 20.0736 73.5681 19.218 73.0125 18.6199C72.4732 18.0218 71.8032 17.7227 71.0025 17.7227C70.1854 17.7227 69.5072 18.0218 68.9679 18.6199C68.4286 19.2014 68.159 20.057 68.159 21.1867C68.159 22.3 68.4206 23.1555 68.9435 23.7537C69.4828 24.3518 70.1528 24.6508 70.9535 24.6508Z" fill="#565656"/>
<path d="M84.796 14.0344C85.7601 14.0344 86.6018 14.2338 87.3208 14.6326C88.0561 15.0312 88.62 15.5546 89.0122 16.2025V14.2338H93.2037V28.1148C93.2037 29.3941 92.9505 30.5489 92.4439 31.5788C91.9536 32.6256 91.1937 33.4563 90.1643 34.071C89.1511 34.6858 87.8846 34.9931 86.3649 34.9931C84.3385 34.9931 82.6961 34.503 81.4378 33.5228C80.1796 32.5591 79.4605 31.2466 79.2807 29.5852H83.4233C83.554 30.1168 83.8646 30.5322 84.3549 30.8313C84.845 31.1469 85.4497 31.3048 86.1687 31.3048C87.0349 31.3048 87.7211 31.0472 88.2278 30.5322C88.7507 30.0338 89.0122 29.228 89.0122 28.1148V26.1461C88.6036 26.794 88.0398 27.3257 87.3208 27.741C86.6018 28.1398 85.7601 28.3392 84.796 28.3392C83.6685 28.3392 82.6471 28.0484 81.732 27.4669C80.8168 26.8688 80.0896 26.0298 79.5504 24.9498C79.0275 23.8534 78.766 22.5907 78.766 21.1619C78.766 19.733 79.0275 18.4787 79.5504 17.3988C80.0896 16.3188 80.8168 15.4881 81.732 14.9066C82.6471 14.3252 83.6685 14.0344 84.796 14.0344ZM89.0122 21.1867C89.0122 20.1235 88.718 19.2844 88.1297 18.6698C87.5578 18.0551 86.855 17.7477 86.0217 17.7477C85.1882 17.7477 84.4774 18.0551 83.889 18.6698C83.3171 19.2679 83.0311 20.0986 83.0311 21.1619C83.0311 22.2252 83.3171 23.0725 83.889 23.7038C84.4774 24.3185 85.1882 24.6259 86.0217 24.6259C86.855 24.6259 87.5578 24.3185 88.1297 23.7038C88.718 23.089 89.0122 22.2501 89.0122 21.1867Z" fill="#565656"/>
<path d="M101.727 28.3392C100.387 28.3392 99.1777 28.0484 98.0992 27.4669C97.037 26.8855 96.1953 26.0548 95.5743 24.9748C94.9698 23.8949 94.6674 22.6322 94.6674 21.1867C94.6674 19.758 94.9778 18.5036 95.5989 17.4236C96.2199 16.3272 97.0696 15.4881 98.1481 14.9066C99.2267 14.3252 100.436 14.0344 101.776 14.0344C103.116 14.0344 104.325 14.3252 105.404 14.9066C106.482 15.4881 107.332 16.3272 107.953 17.4236C108.574 18.5036 108.885 19.758 108.885 21.1867C108.885 22.6156 108.566 23.8782 107.929 24.9748C107.308 26.0548 106.45 26.8855 105.355 27.4669C104.276 28.0484 103.067 28.3392 101.727 28.3392ZM101.727 24.6508C102.528 24.6508 103.206 24.3518 103.762 23.7537C104.333 23.1555 104.619 22.3 104.619 21.1867C104.619 20.0736 104.342 19.218 103.786 18.6199C103.247 18.0218 102.577 17.7227 101.776 17.7227C100.959 17.7227 100.281 18.0218 99.7414 18.6199C99.2022 19.2014 98.9325 20.057 98.9325 21.1867C98.9325 22.3 99.194 23.1555 99.7169 23.7537C100.256 24.3518 100.926 24.6508 101.727 24.6508Z" fill="#565656"/>
<path d="M112.481 12.7883C111.746 12.7883 111.141 12.5724 110.667 12.1404C110.209 11.6918 109.981 11.1436 109.981 10.4956C109.981 9.83104 110.209 9.28277 110.667 8.8508C111.141 8.40222 111.746 8.17793 112.481 8.17793C113.2 8.17793 113.788 8.40222 114.246 8.8508C114.72 9.28277 114.957 9.83104 114.957 10.4956C114.957 11.1436 114.72 11.6918 114.246 12.1404C113.788 12.5724 113.2 12.7883 112.481 12.7883ZM114.564 14.2338V28.1398H110.373V14.2338H114.564Z" fill="#565656"/>
<path d="M121.058 16.2025C121.466 15.5546 122.03 15.0312 122.75 14.6326C123.469 14.2338 124.311 14.0344 125.275 14.0344C126.402 14.0344 127.423 14.3252 128.338 14.9066C129.254 15.4881 129.973 16.3188 130.495 17.3988C131.034 18.4787 131.305 19.733 131.305 21.1619C131.305 22.5907 131.034 23.8534 130.495 24.9498C129.973 26.0298 129.254 26.8688 128.338 27.4669C127.423 28.0484 126.402 28.3392 125.275 28.3392C124.326 28.3392 123.486 28.1398 122.75 27.741C122.03 27.3423 121.466 26.8273 121.058 26.196V34.7688H116.867V14.2338H121.058V16.2025ZM127.04 21.1619C127.04 20.0986 126.745 19.2679 126.157 18.6698C125.584 18.0551 124.874 17.7477 124.025 17.7477C123.191 17.7477 122.48 18.0551 121.891 18.6698C121.32 19.2844 121.034 20.1235 121.034 21.1867C121.034 22.2501 121.32 23.089 121.891 23.7038C122.48 24.3185 123.191 24.6259 124.025 24.6259C124.858 24.6259 125.569 24.3185 126.157 23.7038C126.745 23.0725 127.04 22.2251 127.04 21.1619Z" fill="#565656"/>
<path d="M138.333 28.3392C137.14 28.3392 136.077 28.1315 135.145 27.7162C134.215 27.3007 133.479 26.7359 132.94 26.0214C132.401 25.2904 132.098 24.4764 132.033 23.5792H136.176C136.224 24.061 136.445 24.4514 136.837 24.7505C137.23 25.0495 137.712 25.1991 138.284 25.1991C138.806 25.1991 139.206 25.0994 139.484 24.9C139.779 24.6841 139.926 24.4099 139.926 24.0776C139.926 23.6789 139.722 23.3881 139.313 23.2054C138.905 23.006 138.242 22.7901 137.327 22.5574C136.347 22.3248 135.53 22.0839 134.876 21.8347C134.223 21.569 133.659 21.1619 133.185 20.6136C132.711 20.0488 132.474 19.2928 132.474 18.3458C132.474 17.5483 132.687 16.8256 133.112 16.1776C133.552 15.5131 134.19 14.9897 135.023 14.6076C135.873 14.2255 136.878 14.0344 138.038 14.0344C139.754 14.0344 141.102 14.4664 142.083 15.3303C143.08 16.1943 143.652 17.3406 143.799 18.7694H139.926C139.86 18.2876 139.648 17.9055 139.288 17.623C138.945 17.3406 138.488 17.1994 137.916 17.1994C137.426 17.1994 137.049 17.2991 136.788 17.4985C136.527 17.6812 136.396 17.9387 136.396 18.271C136.396 18.6698 136.601 18.9688 137.009 19.1682C137.434 19.3676 138.087 19.567 138.97 19.7662C139.983 20.0321 140.808 20.298 141.445 20.5637C142.083 20.813 142.638 21.2283 143.112 21.8099C143.602 22.3747 143.856 23.1389 143.873 24.1026C143.873 24.9166 143.644 25.6477 143.185 26.2956C142.745 26.927 142.099 27.4254 141.249 27.7909C140.416 28.1564 139.444 28.3392 138.333 28.3392Z" fill="#565656"/>
<path d="M159.208 14.2338V28.1398H155.016V26.2458C154.591 26.8605 154.011 27.3589 153.276 27.741C152.556 28.1066 151.756 28.2893 150.873 28.2893C149.827 28.2893 148.904 28.0568 148.104 27.5915C147.302 27.1097 146.681 26.4202 146.241 25.5231C145.799 24.6259 145.579 23.571 145.579 22.358V14.2338H149.745V21.7849C149.745 22.7153 149.983 23.438 150.456 23.9531C150.93 24.468 151.568 24.7256 152.369 24.7256C153.186 24.7256 153.831 24.468 154.305 23.9531C154.779 23.438 155.016 22.7153 155.016 21.7849V14.2338H159.208Z" fill="#565656"/>
<path d="M178.936 14.0843C180.635 14.0843 181.983 14.6076 182.98 15.6543C183.993 16.7009 184.5 18.1546 184.5 20.0154V28.1398H180.333V20.5887C180.333 19.6915 180.096 19.002 179.622 18.5202C179.164 18.0218 178.528 17.7725 177.71 17.7725C176.893 17.7725 176.247 18.0218 175.774 18.5202C175.317 19.002 175.087 19.6915 175.087 20.5887V28.1398H170.92V20.5887C170.92 19.6915 170.683 19.002 170.21 18.5202C169.751 18.0218 169.114 17.7725 168.297 17.7725C167.481 17.7725 166.835 18.0218 166.361 18.5202C165.903 19.002 165.675 19.6915 165.675 20.5887V28.1398H161.483V14.2338H165.675V15.9782C166.1 15.3968 166.656 14.9398 167.342 14.6076C168.028 14.2587 168.804 14.0843 169.67 14.0843C170.7 14.0843 171.615 14.3085 172.415 14.7571C173.232 15.2057 173.87 15.8454 174.328 16.6761C174.801 15.9118 175.447 15.2887 176.264 14.807C177.081 14.3252 177.972 14.0843 178.936 14.0843Z" fill="#565656"/>
</svg>
