<svg width="46" height="45" viewBox="0 0 46 45" fill="none" xmlns="http://www.w3.org/2000/svg">
<path opacity="0.9" d="M43.5359 15.7345C42.929 13.8365 43.1877 10.9875 41.6101 8.78763C40.02 6.57048 37.2545 5.9403 35.6929 4.78699C34.1478 3.64584 32.7103 1.16259 30.1112 0.306139C27.5854 -0.526179 25.0026 0.603266 23 0.603266C20.9977 0.603266 18.415 -0.526451 15.8888 0.306048C13.2901 1.16232 11.8515 3.64612 10.3073 4.78672C8.74746 5.93866 5.97991 6.57057 4.39012 8.78736C2.81382 10.9854 3.06996 13.841 2.46405 15.7344C1.88744 17.5365 0 19.6993 0 22.5002C0 25.3028 1.88528 27.4573 2.46405 29.2659C3.07104 31.1639 2.81229 34.0129 4.38995 36.2128C5.97991 38.43 8.7453 39.0601 10.3071 40.2135C11.8519 41.3545 13.2897 43.8379 15.8888 44.6942C18.4128 45.526 20.9997 44.3971 23 44.3971C24.9975 44.3971 27.5904 45.5248 30.1112 44.6943C32.71 43.8381 34.1477 41.3548 35.6927 40.2137C37.2525 39.0617 40.0201 38.4298 41.6099 36.213C43.1863 34.0149 42.9299 31.1596 43.5359 29.266C44.1126 27.4638 46 25.301 46 22.5002C46 19.6978 44.1152 17.5439 43.5359 15.7345ZM40.1164 28.15C39.4089 30.3615 39.5942 32.8364 38.6994 34.0842C37.7925 35.3487 35.4099 35.9262 33.5715 37.2842C31.7531 38.6271 30.4787 40.7558 28.9964 41.2441C27.5942 41.7063 25.3089 40.7679 23.0001 40.7679C20.6744 40.7679 18.4127 41.7083 17.0036 41.2441C15.5216 40.7558 14.2489 38.6285 12.4286 37.2841C10.601 35.9344 8.20489 35.345 7.30061 34.0841C6.40864 32.8404 6.58698 30.3483 5.88378 28.1501C5.1945 25.9964 3.59375 24.1315 3.59375 22.5002C3.59375 20.8672 5.19306 19.0088 5.8836 16.8503C6.59112 14.639 6.40577 12.1639 7.30061 10.9162C8.20696 9.65252 10.5913 9.07306 12.4286 7.71616C14.2527 6.36898 15.5192 4.24536 17.0035 3.75626C18.4046 3.29464 20.6973 4.23248 22.9999 4.23248C25.3298 4.23248 27.5859 3.29147 28.9964 3.75626C30.4782 4.24454 31.7519 6.37261 33.5715 7.71625C35.3988 9.06598 37.7951 9.65543 38.6994 10.9162C39.5915 12.1602 39.4122 14.6497 40.1162 16.8502V16.8503C40.8055 19.004 42.4062 20.8689 42.4062 22.5002C42.4062 24.1332 40.8069 25.9916 40.1164 28.15ZM31.2785 16.6761C31.9802 17.3847 31.9802 18.5336 31.2785 19.2421L22.2846 28.3243C21.5828 29.033 20.445 29.0329 19.7433 28.3243L14.7216 23.2533C14.0198 22.5447 14.0198 21.3958 14.7215 20.6872C15.4233 19.9787 16.5612 19.9786 17.2627 20.6872L21.0139 24.4752L28.7372 16.6761C29.4389 15.9675 30.5767 15.9675 31.2785 16.6761Z" fill="#565656"/>
</svg>
